<?xml version='1.0' encoding='ascii'?>
<svg xmlns="http://www.w3.org/2000/svg" height="1080" version="1.1" width="1080">
    <g id="View Layer_LineSet" inkscape:groupmode="lineset" inkscape:label="View Layer_LineSet" xmlns:inkscape="http://www.inkscape.org/namespaces/inkscape">
        <g id="strokes" inkscape:groupmode="layer" inkscape:label="strokes" xmlns:inkscape="http://www.inkscape.org/namespaces/inkscape">
            <path d=" M 293.048, 937.749 290.084, 937.749 287.681, 937.749 281.078, 937.749 279.600, 937.749 272.332, 937.749 271.878, 937.749 266.184, 937.749 262.477, 937.749 261.387, 937.749 257.714, 937.749 254.763, 937.749 252.871, 937.749 252.187, 937.749 249.651, 937.749 246.749, 937.749 243.114, 937.749 243.054, 937.749 238.530, 937.749 233.012, 937.749 232.662, 937.749 225.975, 937.749 222.726, 937.749 218.726, 937.749 212.172, 937.749 211.259, 937.749 203.860, 937.749 201.329, 937.749 196.507, 937.749 190.180, 937.749 189.180, 937.749 181.872, 937.749 180.119, 936.201 173.736, 930.477 167.450, 924.657 161.308, 918.692 155.343, 912.550 149.523, 906.264 143.799, 899.881 138.123, 893.451 132.464, 887.004 126.859, 880.515 121.359, 873.939 116.020, 867.234 110.875, 860.371 105.890, 853.377 101.011, 846.298 96.186, 839.175 91.379, 832.039 86.630, 824.864 81.998, 817.613 77.540, 810.247 73.296, 802.742 69.226, 795.121 65.273, 787.425 61.377, 779.690 57.502, 771.943 53.691, 764.163 50.005, 756.317 46.509, 748.371 43.245, 740.304 40.171, 732.136 37.223, 723.903 34.338, 715.636 31.475, 707.359 28.680, 699.053 26.022, 690.692 23.568, 682.246 21.364, 673.696 19.365, 665.062 17.502, 656.371 15.707, 647.652 13.936, 638.925 12.238, 630.174 10.687, 621.377 9.355, 612.510 8.291, 603.559 7.447, 594.538 6.750, 585.470 6.125, 576.379 5.526, 567.284 5.003, 558.190 4.633, 549.095 4.493, 540.000 4.633, 530.905 5.003, 521.810 5.526, 512.716 6.125, 503.621 6.750, 494.530 7.447, 485.462 8.291, 476.441 9.355, 467.490 10.687, 458.623 12.238, 449.826 13.936, 441.075 15.707, 432.348 17.502, 423.629 19.365, 414.938 21.364, 406.304 23.568, 397.754 26.022, 389.308 28.680, 380.947 31.475, 372.641 34.338, 364.364 37.223, 356.097 40.171, 347.864 43.245, 339.697 46.509, 331.629 50.005, 323.683 53.691, 315.837 57.502, 308.057 61.377, 300.310 65.273, 292.575 69.226, 284.879 73.296, 277.258 77.540, 269.753 81.998, 262.387 86.630, 255.136 91.379, 247.961 96.186, 240.825 101.011, 233.702 105.890, 226.623 110.875, 219.629 116.019, 212.766 121.359, 206.061 126.858, 199.485 132.464, 192.996 138.123, 186.550 143.799, 180.119 149.523, 173.736 155.343, 167.450 161.308, 161.308 167.450, 155.343 173.736, 149.523 180.119, 143.799 181.872, 142.251 189.180, 142.251 190.180, 142.251 196.507, 142.251 201.329, 142.251 203.860, 142.251 211.258, 142.251 212.172, 142.251 218.726, 142.251 222.726, 142.251 225.975, 142.251 232.662, 142.251 233.012, 142.251 238.530, 142.251 243.054, 142.251 243.114, 142.251 246.748, 142.251 249.651, 142.251 252.187, 142.251 252.872, 142.251 254.762, 142.251 257.714, 142.251 261.387, 142.251 262.477, 142.251 266.183, 142.251 271.878, 142.251 272.331, 142.251 279.600, 142.251 281.078, 142.251 287.681, 142.251 290.084, 142.251 293.048, 142.251 " fill="none" stroke="rgb(0, 0, 0)" stroke-linecap="butt" stroke-linejoin="round" stroke-opacity="1.0" stroke-width="3.0" />
            <path d=" M 786.952, 142.251 789.916, 142.251 792.319, 142.251 798.922, 142.251 800.400, 142.251 807.669, 142.251 808.122, 142.251 813.817, 142.251 817.523, 142.251 818.613, 142.251 822.286, 142.251 825.238, 142.251 827.128, 142.251 827.813, 142.251 830.349, 142.251 833.252, 142.251 836.886, 142.251 836.946, 142.251 841.470, 142.251 846.988, 142.251 847.338, 142.251 854.025, 142.251 857.274, 142.251 861.274, 142.251 867.828, 142.251 868.741, 142.251 876.140, 142.251 878.671, 142.251 883.493, 142.251 889.820, 142.251 890.820, 142.251 898.128, 142.251 899.881, 143.799 906.264, 149.523 912.550, 155.343 918.692, 161.308 924.657, 167.450 930.477, 173.736 936.201, 180.119 941.877, 186.549 947.536, 192.996 953.141, 199.485 958.641, 206.060 963.980, 212.766 969.125, 219.629 974.110, 226.623 978.989, 233.702 983.814, 240.825 988.621, 247.961 993.370, 255.136 998.002, 262.387 1002.460, 269.753 1006.704, 277.258 1010.774, 284.878 1014.727, 292.575 1018.623, 300.310 1022.498, 308.057 1026.309, 315.837 1029.995, 323.683 1033.491, 331.629 1036.755, 339.696 1039.829, 347.864 1042.777, 356.097 1045.662, 364.364 1048.525, 372.641 1051.320, 380.947 1053.978, 389.308 1056.432, 397.754 1058.636, 406.304 1060.635, 414.938 1062.498, 423.629 1064.293, 432.348 1066.064, 441.075 1067.762, 449.826 1069.313, 458.623 1070.645, 467.490 1071.709, 476.441 1072.553, 485.462 1073.250, 494.530 1073.875, 503.621 1074.474, 512.716 1074.997, 521.810 1075.367, 530.905 1075.507, 540.000 1075.367, 549.095 1074.997, 558.190 1074.474, 567.284 1073.875, 576.379 1073.250, 585.470 1072.553, 594.538 1071.709, 603.559 1070.645, 612.510 1069.313, 621.377 1067.762, 630.174 1066.064, 638.925 1064.293, 647.652 1062.498, 656.371 1060.635, 665.062 1058.636, 673.696 1056.432, 682.246 1053.978, 690.692 1051.320, 699.053 1048.525, 707.359 1045.662, 715.636 1042.777, 723.903 1039.829, 732.136 1036.755, 740.303 1033.491, 748.371 1029.995, 756.317 1026.309, 764.163 1022.498, 771.943 1018.623, 779.690 1014.727, 787.425 1010.774, 795.121 1006.704, 802.742 1002.460, 810.247 998.002, 817.613 993.370, 824.864 988.621, 832.038 983.814, 839.175 978.989, 846.298 974.110, 853.377 969.125, 860.371 963.981, 867.234 958.641, 873.939 953.142, 880.515 947.536, 887.004 941.877, 893.450 936.201, 899.881 930.477, 906.264 924.657, 912.550 918.692, 918.692 912.550, 924.657 906.264, 930.477 899.881, 936.201 898.128, 937.749 890.820, 937.749 889.820, 937.749 883.493, 937.749 878.671, 937.749 876.140, 937.749 868.741, 937.749 867.828, 937.749 861.274, 937.749 857.274, 937.749 854.025, 937.749 847.338, 937.749 846.988, 937.749 841.470, 937.749 836.946, 937.749 836.886, 937.749 833.251, 937.749 830.349, 937.749 827.813, 937.749 827.129, 937.749 825.237, 937.749 822.286, 937.749 818.613, 937.749 817.523, 937.749 813.816, 937.749 808.122, 937.749 807.668, 937.749 800.400, 937.749 798.922, 937.749 792.319, 937.749 789.916, 937.749 786.952, 937.749 " fill="none" stroke="rgb(0, 0, 0)" stroke-linecap="butt" stroke-linejoin="round" stroke-opacity="1.0" stroke-width="3.0" />
            <path d=" M 225.656, 297.385 229.615, 292.414 233.692, 287.538 237.848, 282.727 242.044, 277.948 246.252, 273.180 250.496, 268.448 254.811, 263.787 259.233, 259.234 263.787, 254.811 268.448, 250.496 273.180, 246.252 277.948, 242.044 282.727, 237.848 287.538, 233.692 292.413, 229.615 297.385, 225.656 302.474, 221.842 307.658, 218.146 312.907, 214.529 318.188, 210.951 323.479, 207.387 328.799, 203.866 334.175, 200.432 339.636, 197.127 345.200, 193.980 350.850, 190.963 356.556, 188.032 362.291, 185.144 368.035, 182.271 373.803, 179.445 379.620, 176.712 385.511, 174.120 391.493, 171.700 397.548, 169.421 403.652, 167.235 409.782, 165.096 415.918, 162.974 422.076, 160.901 428.275, 158.931 434.538, 157.111 440.876, 155.477 447.278, 153.995 453.721, 152.614 460.185, 151.283 466.656, 149.970 473.144, 148.711 479.666, 147.561 486.240, 146.573 492.877, 145.785 499.565, 145.159 506.288, 144.642 513.028, 144.179 519.771, 143.735 526.514, 143.347 533.257, 143.073 540.000, 142.969 546.743, 143.073 553.486, 143.347 560.229, 143.735 566.972, 144.179 573.712, 144.642 580.435, 145.159 587.123, 145.785 593.760, 146.573 600.334, 147.561 606.856, 148.711 613.344, 149.970 619.815, 151.283 626.279, 152.614 632.722, 153.995 639.124, 155.477 645.462, 157.111 651.725, 158.930 657.924, 160.901 664.082, 162.974 670.218, 165.096 676.348, 167.235 682.452, 169.421 688.507, 171.700 694.489, 174.120 700.380, 176.712 706.197, 179.445 711.965, 182.271 717.709, 185.144 723.444, 188.032 729.150, 190.963 734.800, 193.980 740.364, 197.127 745.825, 200.432 751.201, 203.866 756.521, 207.387 761.812, 210.951 767.093, 214.529 772.342, 218.146 777.526, 221.842 782.615, 225.656 787.586, 229.615 792.462, 233.692 797.273, 237.848 802.052, 242.044 806.820, 246.252 811.552, 250.496 816.213, 254.811 820.766, 259.233 825.189, 263.787 829.504, 268.448 833.748, 273.180 837.956, 277.948 842.152, 282.727 846.308, 287.538 850.385, 292.413 854.344, 297.385 858.158, 302.474 861.854, 307.658 865.471, 312.907 869.049, 318.188 872.613, 323.479 876.134, 328.799 879.568, 334.175 882.873, 339.635 886.020, 345.200 889.037, 350.850 891.968, 356.556 894.856, 362.291 897.729, 368.035 900.555, 373.803 903.288, 379.620 905.880, 385.511 908.300, 391.493 910.579, 397.548 912.765, 403.652 914.904, 409.782 917.026, 415.918 919.099, 422.076 921.069, 428.275 922.889, 434.537 924.523, 440.876 926.005, 447.278 927.386, 453.721 928.717, 460.185 930.030, 466.656 931.289, 473.144 932.439, 479.666 933.427, 486.240 934.215, 492.877 934.841, 499.565 935.358, 506.288 935.821, 513.028 936.265, 519.771 936.653, 526.514 936.927, 533.257 937.031, 540.000 936.927, 546.743 936.653, 553.486 936.265, 560.229 935.821, 566.972 935.358, 573.712 934.841, 580.435 934.215, 587.123 933.427, 593.760 932.439, 600.334 931.289, 606.856 930.030, 613.344 928.717, 619.815 927.386, 626.279 926.005, 632.722 924.523, 639.124 922.889, 645.462 921.070, 651.725 919.099, 657.924 917.026, 664.082 914.904, 670.218 912.765, 676.348 910.579, 682.452 908.300, 688.507 905.880, 694.489 903.288, 700.380 900.555, 706.197 897.729, 711.965 894.856, 717.709 891.968, 723.444 889.037, 729.150 886.020, 734.800 882.873, 740.364 879.568, 745.825 876.134, 751.201 872.613, 756.521 869.049, 761.812 865.471, 767.093 861.854, 772.342 858.158, 777.526 854.344, 782.615 850.385, 787.587 846.308, 792.462 842.152, 797.273 837.956, 802.052 833.748, 806.820 829.504, 811.552 825.189, 816.213 820.767, 820.767 816.213, 825.189 811.552, 829.504 806.820, 833.748 802.052, 837.956 797.273, 842.152 792.462, 846.308 787.587, 850.385 782.615, 854.344 777.526, 858.158 772.342, 861.854 767.093, 865.471 761.812, 869.049 756.521, 872.613 751.201, 876.134 745.825, 879.568 740.365, 882.873 734.800, 886.020 729.150, 889.037 723.444, 891.968 717.709, 894.856 711.965, 897.729 706.197, 900.555 700.380, 903.288 694.489, 905.880 688.507, 908.300 682.452, 910.579 676.348, 912.765 670.218, 914.904 664.082, 917.026 657.924, 919.098 651.725, 921.069 645.463, 922.889 639.124, 924.523 632.722, 926.005 626.279, 927.386 619.815, 928.717 613.344, 930.030 606.856, 931.289 600.334, 932.439 593.760, 933.426 587.123, 934.215 580.435, 934.841 573.712, 935.358 566.972, 935.821 560.229, 936.265 553.486, 936.653 546.743, 936.927 540.000, 937.031 533.257, 936.927 526.514, 936.653 519.771, 936.265 513.028, 935.821 506.288, 935.358 499.565, 934.841 492.877, 934.215 486.240, 933.427 479.666, 932.439 473.144, 931.289 466.656, 930.030 460.185, 928.717 453.721, 927.386 447.278, 926.005 440.876, 924.523 434.538, 922.889 428.275, 921.070 422.076, 919.099 415.918, 917.026 409.782, 914.904 403.652, 912.765 397.548, 910.579 391.493, 908.300 385.511, 905.880 379.620, 903.288 373.803, 900.555 368.035, 897.729 362.291, 894.856 356.556, 891.968 350.850, 889.037 345.200, 886.020 339.636, 882.873 334.175, 879.568 328.799, 876.134 323.479, 872.613 318.188, 869.049 312.907, 865.471 307.658, 861.854 302.474, 858.158 297.385, 854.344 292.413, 850.385 287.538, 846.308 282.727, 842.152 277.948, 837.956 273.180, 833.748 268.448, 829.504 263.787, 825.189 259.233, 820.767 254.811, 816.213 250.496, 811.552 246.252, 806.820 242.044, 802.052 237.848, 797.273 233.692, 792.462 229.615, 787.587 225.656, 782.615 221.842, 777.526 218.146, 772.342 214.529, 767.093 210.951, 761.812 207.387, 756.521 203.866, 751.201 200.432, 745.825 197.127, 740.364 193.980, 734.800 190.963, 729.150 188.032, 723.444 185.144, 717.709 182.271, 711.965 179.445, 706.197 176.712, 700.380 174.120, 694.489 171.700, 688.507 169.421, 682.452 167.235, 676.348 165.096, 670.218 162.974, 664.082 160.902, 657.924 158.931, 651.725 157.111, 645.462 155.477, 639.124 153.995, 632.722 152.614, 626.279 151.283, 619.815 149.970, 613.344 148.711, 606.856 147.561, 600.334 146.574, 593.760 145.785, 587.123 145.159, 580.435 144.642, 573.712 144.179, 566.972 143.735, 560.229 143.347, 553.486 143.073, 546.743 142.969, 540.000 143.073, 533.257 143.347, 526.514 143.735, 519.771 144.179, 513.028 144.642, 506.288 145.159, 499.565 145.785, 492.877 146.573, 486.240 147.561, 479.666 148.711, 473.144 149.970, 466.656 151.283, 460.185 152.614, 453.721 153.995, 447.278 155.477, 440.876 157.111, 434.538 158.930, 428.275 160.901, 422.076 162.974, 415.918 165.096, 409.782 167.235, 403.652 169.421, 397.548 171.700, 391.493 174.120, 385.511 176.712, 379.620 179.445, 373.803 182.271, 368.035 185.144, 362.291 188.032, 356.556 190.963, 350.850 193.980, 345.200 197.127, 339.636 200.432, 334.175 203.866, 328.799 207.387, 323.479 210.951, 318.188 214.529, 312.907 218.146, 307.658 221.842, 302.474 225.656, 297.385 " fill="none" stroke="rgb(0, 0, 0)" stroke-linecap="butt" stroke-linejoin="round" stroke-opacity="1.0" stroke-width="3.0" />
            <path d=" M 419.339, 937.749 418.658, 937.749 416.275, 937.749 409.099, 937.749 407.445, 937.749 401.847, 937.749 398.253, 937.749 394.514, 937.749 391.171, 937.749 387.104, 937.749 385.823, 937.749 381.664, 937.749 379.618, 937.749 378.111, 937.749 374.678, 937.749 372.055, 937.749 370.838, 937.749 366.256, 937.749 364.407, 937.749 360.506, 937.749 356.659, 937.749 353.368, 937.749 348.797, 937.749 345.154, 937.749 340.811, 937.749 336.211, 937.749 332.696, 937.749 326.968, 937.749 324.452, 937.749 317.913, 937.749 316.078, 937.749 309.239, 937.749 307.568, 937.749 300.985, 937.749 298.909, 937.749 293.048, 937.749 293.048, 937.749 290.933, 936.398 284.660, 932.246 278.421, 928.043 272.193, 923.824 266.003, 919.558 259.888, 915.200 253.887, 910.702 248.025, 906.033 242.275, 901.225 236.602, 896.323 230.965, 891.376 225.343, 886.413 219.762, 881.408 214.266, 876.319 208.896, 871.104 203.681, 865.734 198.592, 860.238 193.587, 854.657 188.624, 849.035 183.677, 843.399 178.775, 837.725 173.967, 831.975 169.299, 826.113 164.800, 820.112 160.442, 813.997 156.176, 807.807 151.957, 801.579 147.754, 795.340 143.602, 789.067 139.552, 782.727 135.654, 776.287 131.944, 769.725 128.385, 763.062 124.929, 756.333 121.523, 749.570 118.135, 742.796 114.802, 735.994 111.580, 729.134 108.523, 722.186 105.669, 715.133 102.981, 707.992 100.404, 700.793 97.881, 693.565 95.378, 686.328 92.934, 679.066 90.610, 671.755 88.465, 664.370 86.538, 656.895 84.790, 649.346 83.161, 641.747 81.592, 634.124 80.043, 626.493 78.559, 618.843 77.202, 611.151 76.038, 603.399 75.108, 595.572 74.370, 587.684 73.760, 579.756 73.214, 571.807 72.690, 563.856 72.233, 555.904 71.909, 547.952 71.787, 540.000 71.909, 532.048 72.233, 524.096 72.690, 516.144 73.214, 508.193 73.760, 500.244 74.370, 492.316 75.108, 484.428 76.038, 476.601 77.202, 468.849 78.559, 461.158 80.043, 453.507 81.592, 445.876 83.161, 438.253 84.790, 430.654 86.538, 423.105 88.465, 415.630 90.610, 408.245 92.934, 400.934 95.378, 393.672 97.881, 386.435 100.404, 379.207 102.981, 372.008 105.669, 364.867 108.523, 357.814 111.580, 350.866 114.802, 344.006 118.135, 337.204 121.523, 330.430 124.929, 323.667 128.385, 316.938 131.943, 310.275 135.654, 303.713 139.552, 297.273 143.602, 290.933 147.754, 284.660 151.957, 278.421 156.176, 272.193 160.442, 266.003 164.800, 259.888 169.298, 253.887 173.967, 248.025 178.775, 242.275 183.677, 236.602 188.624, 230.965 193.587, 225.343 198.592, 219.762 203.681, 214.266 208.896, 208.896 214.266, 203.681 219.762, 198.592 225.343, 193.587 230.965, 188.624 236.601, 183.677 242.275, 178.775 248.025, 173.967 253.887, 169.299 259.888, 164.800 266.003, 160.442 272.193, 156.176 278.421, 151.957 284.660, 147.754 290.933, 143.602 293.048, 142.251 293.048, 142.251 298.909, 142.251 300.985, 142.251 307.568, 142.251 309.239, 142.251 316.078, 142.251 317.913, 142.251 324.452, 142.251 326.968, 142.251 332.696, 142.251 336.211, 142.251 340.811, 142.251 345.154, 142.251 348.797, 142.251 353.368, 142.251 356.659, 142.251 360.506, 142.251 364.407, 142.251 366.256, 142.251 370.838, 142.251 372.055, 142.251 374.677, 142.251 378.111, 142.251 379.618, 142.251 381.664, 142.251 385.823, 142.251 387.104, 142.251 391.171, 142.251 394.514, 142.251 398.253, 142.251 401.847, 142.251 407.445, 142.251 409.099, 142.251 416.275, 142.251 418.658, 142.251 423.385, 142.251 430.445, 142.251 432.483, 142.251 437.467, 142.251 444.457, 142.251 450.504, 142.251 451.412, 142.251 458.331, 142.251 465.221, 142.251 472.076, 142.251 473.709, 142.251 478.907, 142.251 485.652, 142.251 492.349, 142.251 499.113, 142.251 505.977, 142.251 512.898, 142.251 519.826, 142.251 526.700, 142.251 533.432, 142.251 540.000, 142.251 546.568, 142.251 553.300, 142.251 560.174, 142.251 567.102, 142.251 574.023, 142.251 580.887, 142.251 587.651, 142.251 594.348, 142.251 601.093, 142.251 606.291, 142.251 607.924, 142.251 612.792, 142.251 " fill="none" stroke="rgb(0, 0, 0)" stroke-linecap="butt" stroke-linejoin="round" stroke-opacity="1.0" stroke-width="3.0" />
            <path d=" M 786.952, 937.749 781.091, 937.749 779.015, 937.749 772.432, 937.749 770.761, 937.749 763.922, 937.749 762.087, 937.749 755.548, 937.749 753.032, 937.749 747.304, 937.749 743.789, 937.749 739.189, 937.749 734.846, 937.749 731.203, 937.749 726.632, 937.749 723.341, 937.749 719.494, 937.749 715.593, 937.749 713.744, 937.749 709.162, 937.749 707.945, 937.749 705.322, 937.749 701.889, 937.749 700.382, 937.749 698.335, 937.749 694.177, 937.749 692.896, 937.749 688.829, 937.749 685.486, 937.749 681.747, 937.749 678.153, 937.749 672.554, 937.749 670.902, 937.749 663.726, 937.749 661.342, 937.749 656.615, 937.749 649.555, 937.749 647.517, 937.749 642.533, 937.749 635.543, 937.749 629.495, 937.749 628.588, 937.749 621.669, 937.749 614.779, 937.749 607.924, 937.749 606.290, 937.749 601.093, 937.749 594.348, 937.749 587.651, 937.749 580.887, 937.749 574.023, 937.749 567.102, 937.749 560.174, 937.749 553.300, 937.749 546.568, 937.749 540.000, 937.749 533.432, 937.749 526.700, 937.749 519.826, 937.749 512.898, 937.749 505.977, 937.749 499.113, 937.749 492.349, 937.749 485.652, 937.749 478.907, 937.749 473.709, 937.749 472.076, 937.749 465.221, 937.749 458.331, 937.749 451.412, 937.749 450.505, 937.749 444.457, 937.749 440.939, 937.749 " fill="none" stroke="rgb(0, 0, 0)" stroke-linecap="butt" stroke-linejoin="round" stroke-opacity="1.0" stroke-width="3.0" />
            <path d=" M 747.659, 142.251 753.032, 142.251 755.547, 142.251 762.087, 142.251 763.921, 142.251 770.761, 142.251 772.432, 142.251 779.016, 142.251 781.091, 142.251 786.952, 142.251 786.952, 142.251 789.067, 143.602 795.340, 147.754 801.579, 151.957 807.807, 156.176 813.997, 160.442 820.112, 164.800 826.113, 169.298 831.975, 173.967 837.725, 178.775 843.398, 183.677 849.035, 188.624 854.657, 193.587 860.238, 198.592 865.734, 203.681 871.104, 208.896 876.319, 214.266 881.408, 219.762 886.413, 225.343 891.376, 230.965 896.323, 236.602 901.225, 242.275 906.033, 248.025 910.701, 253.887 915.200, 259.888 919.558, 266.003 923.824, 272.193 928.043, 278.421 932.246, 284.660 936.398, 290.933 940.448, 297.273 944.346, 303.713 948.056, 310.275 951.615, 316.938 955.071, 323.667 958.477, 330.430 961.865, 337.204 965.198, 344.006 968.420, 350.866 971.477, 357.814 974.331, 364.867 977.019, 372.008 979.596, 379.207 982.119, 386.435 984.622, 393.672 987.066, 400.934 989.390, 408.245 991.535, 415.630 993.462, 423.105 995.210, 430.654 996.839, 438.253 998.408, 445.876 999.957, 453.507 1001.441, 461.157 1002.798, 468.849 1003.962, 476.601 1004.892, 484.428 1005.630, 492.316 1006.240, 500.244 1006.786, 508.193 1007.310, 516.144 1007.767, 524.096 1008.091, 532.048 1008.214, 540.000 1008.091, 547.952 1007.767, 555.904 1007.310, 563.856 1006.786, 571.807 1006.240, 579.756 1005.630, 587.684 1004.892, 595.572 1003.962, 603.399 1002.798, 611.151 1001.441, 618.842 999.957, 626.493 998.408, 634.124 996.839, 641.747 995.210, 649.346 993.462, 656.895 991.536, 664.370 989.390, 671.755 987.066, 679.066 984.622, 686.328 982.119, 693.565 979.596, 700.793 977.019, 707.992 974.331, 715.133 971.477, 722.186 968.420, 729.134 965.198, 735.994 961.865, 742.796 958.477, 749.570 955.071, 756.332 951.615, 763.062 948.057, 769.725 944.346, 776.287 940.448, 782.727 936.398, 789.067 932.246, 795.340 928.043, 801.579 923.824, 807.807 919.558, 813.997 915.200, 820.112 910.702, 826.113 906.033, 831.975 901.225, 837.725 896.323, 843.398 891.376, 849.035 886.413, 854.657 881.408, 860.238 876.319, 865.734 871.104, 871.104 865.734, 876.319 860.238, 881.408 854.657, 886.413 849.035, 891.376 843.398, 896.323 837.725, 901.225 831.975, 906.033 826.113, 910.701 820.112, 915.200 813.997, 919.558 807.807, 923.824 801.579, 928.043 795.340, 932.246 789.067, 936.398 786.952, 937.749 " fill="none" stroke="rgb(0, 0, 0)" stroke-linecap="butt" stroke-linejoin="round" stroke-opacity="1.0" stroke-width="3.0" />
            <path d=" M 612.792, 142.251 614.779, 142.251 621.669, 142.251 628.588, 142.251 629.496, 142.251 635.543, 142.251 642.533, 142.251 647.518, 142.251 649.555, 142.251 656.615, 142.251 661.342, 142.251 663.725, 142.251 670.901, 142.251 672.555, 142.251 678.153, 142.251 681.747, 142.251 685.486, 142.251 688.829, 142.251 692.896, 142.251 694.178, 142.251 698.336, 142.251 700.382, 142.251 701.889, 142.251 705.323, 142.251 707.945, 142.251 709.162, 142.251 713.745, 142.251 715.593, 142.251 719.494, 142.251 723.341, 142.251 726.632, 142.251 731.203, 142.251 734.846, 142.251 739.189, 142.251 743.789, 142.251 747.304, 142.251 747.659, 142.251 " fill="none" stroke="rgb(0, 0, 0)" stroke-linecap="butt" stroke-linejoin="round" stroke-opacity="1.0" stroke-width="3.0" />
            <path d=" M 440.939, 937.749 437.467, 937.749 432.483, 937.749 430.445, 937.749 423.385, 937.749 419.339, 937.749 " fill="none" stroke="rgb(0, 0, 0)" stroke-linecap="butt" stroke-linejoin="round" stroke-opacity="1.0" stroke-width="3.0" />
        </g>
    </g>
</svg>
