<?xml version='1.0' encoding='ascii'?>
<svg xmlns="http://www.w3.org/2000/svg" height="1080" version="1.1" width="1080">
    <g id="View Layer_LineSet" inkscape:groupmode="lineset" inkscape:label="View Layer_LineSet" xmlns:inkscape="http://www.inkscape.org/namespaces/inkscape">
        <g id="strokes" inkscape:groupmode="layer" inkscape:label="strokes" xmlns:inkscape="http://www.inkscape.org/namespaces/inkscape">
            <path d=" M 853.658, 591.807 857.312, 591.795 861.361, 591.783 865.777, 591.769 870.535, 591.754 875.607, 591.739 880.966, 591.722 886.586, 591.705 892.438, 591.687 898.497, 591.668 904.736, 591.649 911.128, 591.629 917.646, 591.609 924.264, 591.588 930.956, 591.567 937.694, 591.547 944.453, 591.526 951.207, 591.503 957.929, 591.467 964.593, 591.407 971.172, 591.309 977.641, 591.161 983.974, 590.951 990.144, 590.667 996.126, 590.296 1001.894, 589.825 1007.421, 589.242 1012.684, 588.535 1017.655, 587.692 1022.309, 586.700 1026.620, 585.547 1030.598, 584.236 1034.392, 582.839 1037.287, 581.016 1039.998, 579.106 1042.378, 577.039 1044.418, 574.811 1046.144, 572.434 1047.583, 569.920 1048.761, 567.283 1049.704, 564.533 1050.438, 561.684 1050.990, 558.748 1051.386, 555.738 1051.651, 552.665 1051.812, 549.542 1051.894, 546.382 1051.925, 543.197 1051.929, 540.000 1051.925, 536.803 1051.894, 533.618 1051.812, 530.458 1051.651, 527.335 1051.386, 524.262 1050.990, 521.252 1050.439, 518.316 1049.704, 515.467 1048.761, 512.717 1047.583, 510.080 1046.144, 507.566 1044.418, 505.189 1042.378, 502.961 1039.998, 500.894 1037.287, 498.984 1034.392, 497.161 1030.598, 495.764 1026.620, 494.453 1022.309, 493.300 1017.655, 492.308 1012.684, 491.465 1007.421, 490.758 1001.894, 490.175 996.126, 489.704 990.144, 489.333 983.974, 489.049 977.641, 488.839 971.172, 488.691 964.593, 488.593 957.929, 488.533 951.207, 488.497 944.453, 488.474 937.694, 488.453 930.956, 488.433 924.264, 488.412 917.646, 488.391 911.128, 488.371 904.736, 488.351 898.497, 488.332 892.438, 488.313 886.586, 488.295 880.966, 488.278 875.607, 488.261 870.535, 488.246 865.777, 488.231 861.361, 488.217 857.312, 488.205 853.658, 488.193 850.417, 488.183 847.573, 488.174 845.098, 488.167 842.967, 488.160 841.154, 488.155 839.631, 488.150 838.374, 488.146 837.355, 488.143 836.548, 488.140 835.927, 488.138 835.465, 488.137 835.135, 488.136 834.912, 488.135 834.768, 488.135 834.677, 488.135 834.613, 488.134 834.553, 488.134 834.493, 488.134 834.433, 488.134 834.373, 488.134 834.312, 488.134 834.252, 488.133 834.191, 488.133 834.131, 488.133 834.069, 488.133 834.008, 488.133 833.946, 488.132 833.884, 488.132 833.822, 488.132 833.759, 488.132 833.696, 488.132 833.633, 488.132 833.568, 488.131 833.504, 488.131 833.439, 488.131 833.373, 488.131 833.307, 488.131 833.241, 488.130 833.175, 488.130 833.108, 488.130 833.041, 488.130 832.974, 488.130 832.907, 488.129 832.839, 488.129 832.771, 488.129 832.704, 488.129 832.636, 488.129 832.568, 488.128 832.500, 488.128 832.432, 488.128 832.364, 488.128 832.296, 488.128 832.228, 488.128 832.160, 488.127 832.092, 488.127 832.023, 488.127 831.954, 488.127 831.886, 488.127 831.816, 488.126 831.747, 488.126 831.677, 488.126 831.607, 488.126 831.537, 488.126 831.467, 488.125 831.396, 488.125 831.324, 488.125 831.253, 488.125 831.181, 488.125 831.109, 488.124 831.036, 488.124 830.963, 488.124 830.891, 488.124 830.817, 488.124 830.744, 488.123 830.671, 488.123 830.597, 488.123 830.524, 488.123 830.450, 488.123 830.376, 488.122 830.303, 488.122 830.229, 488.122 830.155, 488.122 830.081, 488.122 830.008, 488.121 829.934, 488.121 829.860, 488.121 829.786, 488.121 829.712, 488.121 829.637, 488.120 829.563, 488.120 829.489, 488.120 829.414, 488.120 829.339, 488.120 829.264, 488.119 829.189, 488.119 829.114, 488.119 829.038, 488.119 828.962, 488.119 828.886, 488.118 828.810, 488.118 828.733, 488.118 828.657, 488.118 828.580, 488.118 828.503, 488.117 828.426, 488.117 828.349, 488.117 828.272, 488.117 828.195, 488.117 828.118, 488.116 828.040, 488.116 827.963, 488.116 827.886, 488.116 827.808, 488.116 827.731, 488.115 827.654, 488.115 827.576, 488.115 827.499, 488.115 827.421, 488.115 827.344, 488.114 827.266, 488.114 827.189, 488.114 827.111, 488.114 827.034, 488.114 826.956, 488.113 826.878, 488.113 826.800, 488.113 826.723, 488.113 826.645, 488.112 826.567, 488.112 826.489, 488.112 826.410, 488.112 826.332, 488.112 826.254, 488.112 826.176, 488.111 826.097, 488.111 826.019, 488.111 825.940, 488.111 825.862, 488.111 825.783, 488.110 825.705, 488.110 825.626, 488.110 825.547, 488.110 825.469, 488.110 825.390, 488.109 825.312, 488.109 825.233, 488.109 825.154, 488.109 825.076, 488.109 824.997, 488.108 824.919, 488.108 824.840, 488.108 824.762, 488.108 824.683, 488.108 824.605, 488.107 824.526, 488.107 824.448, 488.107 824.370, 488.107 824.291, 488.107 824.213, 488.106 824.135, 488.106 824.057, 488.106 823.979, 488.106 823.901, 488.106 823.823, 488.105 823.746, 488.105 823.668, 488.105 823.590, 488.105 823.513, 488.105 823.435, 488.104 823.357, 488.104 823.280, 488.104 823.202, 488.104 823.125, 488.104 823.047, 488.104 822.970, 488.103 822.892, 488.103 822.815, 488.103 822.737, 488.103 822.660, 488.103 822.582, 488.102 822.505, 488.102 822.428, 488.102 822.350, 488.102 822.273, 488.102 822.196, 488.102 822.119, 488.101 822.043, 488.101 821.966, 488.101 821.890, 488.101 821.813, 488.101 821.737, 488.100 821.661, 488.100 821.586, 488.100 821.510, 488.100 821.435, 488.100 821.360, 488.100 821.285, 488.099 821.210, 488.099 821.135, 488.099 821.061, 488.099 820.987, 488.099 820.912, 488.099 820.838, 488.098 820.764, 488.098 820.690, 488.098 820.616, 488.098 820.542, 488.098 820.467, 488.097 820.393, 488.097 820.319, 488.097 820.245, 488.097 820.172, 488.097 820.098, 488.097 820.024, 488.096 819.951, 488.096 819.877, 488.096 819.804, 488.096 819.731, 488.096 819.658, 488.096 819.586, 488.095 819.513, 488.095 819.441, 488.095 819.370, 488.095 819.298, 488.095 819.227, 488.095 819.157, 488.094 819.086, 488.094 819.016, 488.094 818.946, 488.094 818.877, 488.094 818.807, 488.094 818.738, 488.094 818.669, 488.093 818.601, 488.093 818.532, 488.093 818.463, 488.093 818.395, 488.093 818.327, 488.093 818.258, 488.093 818.190, 488.092 818.122, 488.092 818.053, 488.092 817.985, 488.092 817.917, 488.092 817.849, 488.092 817.781, 488.091 817.714, 488.091 817.646, 488.091 817.579, 488.091 817.512, 488.091 817.445, 488.091 817.379, 488.091 817.313, 488.090 817.248, 488.090 817.182, 488.090 817.118, 488.090 817.054, 488.090 816.990, 488.090 816.927, 488.090 816.864, 488.090 816.801, 488.089 816.739, 488.089 816.677, 488.089 816.616, 488.089 816.554, 488.089 816.493, 488.089 816.432, 488.089 816.371, 488.089 816.311, 488.088 816.250, 488.088 816.190, 488.088 816.129, 488.088 816.064, 488.088 815.974, 488.086 815.833, 488.082 815.615, 488.074 815.296, 488.060 814.849, 488.040 814.249, 488.012 813.470, 487.975 812.488, 487.927 811.276, 487.868 809.809, 487.795 808.061, 487.708 806.007, 487.605 803.621, 487.485 800.878, 487.346 797.751, 487.188 794.224, 487.009 790.312, 486.810 786.042, 486.593 781.439, 486.358 776.527, 486.108 771.332, 485.843 765.879, 485.564 760.194, 485.274 754.302, 484.973 748.227, 484.663 741.997, 484.344 735.635, 484.019 729.167, 483.688 722.620, 483.353 716.018, 483.016 709.387, 482.677 702.752, 482.333 696.139, 481.965 689.572, 481.546 683.075, 481.054 676.673, 480.462 670.392, 479.747 664.255, 478.882 658.289, 477.844 652.517, 476.608 646.965, 475.148 641.659, 473.441 636.622, 471.461 631.881, 469.184 627.460, 466.584 623.385, 463.638 619.680, 460.320 616.362, 456.615 613.416, 452.540 610.816, 448.119 608.539, 443.378 606.559, 438.341 604.852, 433.035 603.392, 427.483 602.156, 421.711 601.118, 415.745 600.253, 409.608 599.538, 403.327 598.946, 396.925 598.454, 390.428 598.035, 383.861 597.667, 377.248 597.323, 370.613 596.984, 363.982 596.647, 357.380 596.312, 350.833 595.981, 344.365 595.656, 338.003 595.337, 331.773 595.027, 325.698 594.726, 319.806 594.436, 314.121 594.157, 308.668 593.892, 303.473 593.642, 298.561 593.407, 293.958 593.190, 289.688 592.991, 285.776 592.812, 282.249 592.654, 279.122 592.515, 276.379 592.395, 273.993 592.292, 271.939 592.205, 270.191 592.132, 268.724 592.073, 267.512 592.025, 266.530 591.988, 265.751 591.960, 265.151 591.940, 264.704 591.926, 264.385 591.918, 264.167 591.914, 264.026 591.912, 263.936 591.912, 263.871 591.912, 263.810 591.912, 263.750 591.912, 263.689 591.911, 263.629 591.911, 263.568 591.911, 263.507 591.911, 263.446 591.911, 263.384 591.911, 263.323 591.911, 263.261 591.911, 263.199 591.910, 263.136 591.910, 263.073 591.910, 263.010 591.910, 262.946 591.910, 262.882 591.910, 262.818 591.910, 262.752 591.910, 262.687 591.909, 262.621 591.909, 262.555 591.909, 262.488 591.909, 262.421 591.909, 262.354 591.909, 262.286 591.909, 262.219 591.908, 262.151 591.908, 262.083 591.908, 262.015 591.908, 261.947 591.908, 261.878 591.908, 261.810 591.907, 261.742 591.907, 261.673 591.907, 261.605 591.907, 261.537 591.907, 261.468 591.907, 261.399 591.907, 261.331 591.906, 261.262 591.906, 261.193 591.906, 261.123 591.906, 261.054 591.906, 260.984 591.906, 260.914 591.906, 260.843 591.905, 260.773 591.905, 260.702 591.905, 260.630 591.905, 260.559 591.905, 260.487 591.905, 260.414 591.904, 260.342 591.904, 260.269 591.904, 260.196 591.904, 260.123 591.904, 260.049 591.904, 259.976 591.903, 259.902 591.903, 259.828 591.903, 259.754 591.903, 259.680 591.903, 259.607 591.903, 259.532 591.902, 259.458 591.902, 259.384 591.902, 259.310 591.902, 259.236 591.902, 259.162 591.901, 259.088 591.901, 259.013 591.901, 258.939 591.901, 258.865 591.901, 258.790 591.901, 258.715 591.900, 258.640 591.900, 258.565 591.900, 258.490 591.900, 258.414 591.900, 258.339 591.900, 258.263 591.899, 258.187 591.899, 258.110 591.899, 258.034 591.899, 257.957 591.899, 257.881 591.898, 257.804 591.898, 257.727 591.898, 257.650 591.898, 257.572 591.898, 257.495 591.898, 257.418 591.897, 257.340 591.897, 257.263 591.897, 257.185 591.897, 257.108 591.897, 257.030 591.896, 256.953 591.896, 256.875 591.896, 256.798 591.896, 256.720 591.896, 256.643 591.896, 256.565 591.895, 256.487 591.895, 256.410 591.895, 256.332 591.895, 256.254 591.895, 256.177 591.894, 256.099 591.894, 256.021 591.894, 255.943 591.894, 255.865 591.894, 255.787 591.893, 255.708 591.893, 255.630 591.893, 255.552 591.893, 255.474 591.893, 255.395 591.892, 255.317 591.892, 255.238 591.892, 255.160 591.892, 255.081 591.892, 255.003 591.891, 254.924 591.891, 254.846 591.891, 254.767 591.891, 254.688 591.891, 254.610 591.890, 254.531 591.890, 254.453 591.890, 254.374 591.890, 254.295 591.890, 254.217 591.889, 254.138 591.889, 254.060 591.889, 253.981 591.889, 253.903 591.889, 253.824 591.888, 253.746 591.888, 253.668 591.888, 253.590 591.888, 253.511 591.888, 253.433 591.888, 253.355 591.887, 253.277 591.887, 253.199 591.887, 253.122 591.887, 253.044 591.886, 252.966 591.886, 252.889 591.886, 252.811 591.886, 252.734 591.886, 252.656 591.885, 252.579 591.885, 252.501 591.885, 252.424 591.885, 252.346 591.885, 252.269 591.884, 252.192 591.884, 252.114 591.884, 252.037 591.884, 251.960 591.884, 251.882 591.883, 251.805 591.883, 251.728 591.883, 251.651 591.883, 251.574 591.883, 251.497 591.882, 251.420 591.882, 251.343 591.882, 251.267 591.882, 251.190 591.882, 251.114 591.881, 251.038 591.881, 250.962 591.881, 250.886 591.881, 250.811 591.881, 250.736 591.880, 250.661 591.880, 250.586 591.880, 250.511 591.880, 250.437 591.880, 250.362 591.879, 250.288 591.879, 250.214 591.879, 250.140 591.879, 250.066 591.879, 249.992 591.878, 249.919 591.878, 249.845 591.878, 249.771 591.878, 249.697 591.878, 249.624 591.877, 249.550 591.877, 249.476 591.877, 249.403 591.877, 249.329 591.877, 249.256 591.876, 249.183 591.876, 249.109 591.876, 249.037 591.876, 248.964 591.876, 248.891 591.875, 248.819 591.875, 248.747 591.875, 248.676 591.875, 248.604 591.875, 248.533 591.874, 248.463 591.874, 248.393 591.874, 248.323 591.874, 248.253 591.874, 248.184 591.873, 248.114 591.873, 248.046 591.873, 247.977 591.873, 247.908 591.873, 247.840 591.872, 247.772 591.872, 247.704 591.872, 247.636 591.872, 247.568 591.872, 247.500 591.872, 247.432 591.871, 247.364 591.871, 247.296 591.871, 247.229 591.871, 247.161 591.871, 247.093 591.870, 247.026 591.870, 246.959 591.870, 246.892 591.870, 246.825 591.870, 246.759 591.869, 246.692 591.869, 246.627 591.869, 246.561 591.869, 246.496 591.869, 246.432 591.868, 246.367 591.868, 246.304 591.868, 246.241 591.868, 246.178 591.868, 246.116 591.868, 246.054 591.867, 245.992 591.867, 245.931 591.867, 245.869 591.867, 245.809 591.867, 245.748 591.866, 245.688 591.866, 245.627 591.866, 245.567 591.866, 245.507 591.866, 245.447 591.866, 245.387 591.865, 245.323 591.865, 245.232 591.865, 245.088 591.864, 244.865 591.863, 244.535 591.862, 244.073 591.860, 243.452 591.857, 242.645 591.854, 241.626 591.850, 240.369 591.845, 238.846 591.840, 237.033 591.833, 234.902 591.826, 232.427 591.817, 229.583 591.807, 226.342 591.795, 222.688 591.783, 218.639 591.769, 214.223 591.754, 209.465 591.739, 204.393 591.722, 199.034 591.705, 193.414 591.687, 187.562 591.668, 181.503 591.649, 175.264 591.629, 168.872 591.609, 162.354 591.588, 155.736 591.567, 149.044 591.547, 142.306 591.526, 135.547 591.503, 128.793 591.467, 122.071 591.407, 115.407 591.309, 108.828 591.161, 102.359 590.951, 96.026 590.667, 89.856 590.296, 83.874 589.825, 78.106 589.242, 72.579 588.535, 67.316 587.692, 62.345 586.700, 57.691 585.547, 53.380 584.236, 49.402 582.839, 45.608 581.016, 42.713 579.106, 40.002 577.039, 37.622 574.811, 35.582 572.434, 33.856 569.920, 32.417 567.283, 31.239 564.533, 30.296 561.684, 29.561 558.748, 29.010 555.738, 28.614 552.665, 28.349 549.542, 28.188 546.382, 28.106 543.197, 28.075 540.000, 28.071 536.803, 28.075 533.618, 28.106 530.458, 28.188 527.335, 28.349 524.262, 28.614 521.252, 29.010 518.316, 29.562 515.467, 30.296 512.717, 31.239 510.080, 32.417 507.566, 33.856 505.189, 35.582 502.961, 37.622 500.894, 40.002 498.984, 42.713 497.161, 45.608 495.764, 49.402 494.453, 53.380 493.300, 57.691 492.308, 62.345 491.465, 67.316 490.758, 72.579 490.175, 78.106 489.704, 83.874 489.333, 89.856 489.049, 96.026 488.839, 102.359 488.691, 108.828 488.593, 115.407 488.533, 122.071 488.497, 128.793 488.474, 135.547 488.453, 142.306 488.433, 149.044 488.412, 155.736 488.391, 162.354 488.371, 168.872 488.351, 175.264 488.332, 181.503 488.313, 187.562 488.295, 193.414 488.278, 199.034 488.261, 204.393 488.246, 209.465 488.231, 214.223 488.217, 218.639 488.205, 222.688 488.193, 226.342 488.183, 229.583 488.174, 232.427 488.167, 234.902 488.160, 237.033 488.155, 238.846 488.150, 240.369 488.146, 241.626 488.143, 242.645 488.140, 243.452 488.138, 244.073 488.137, 244.535 488.136, 244.865 488.135, 245.088 488.135, 245.232 488.135, 245.323 488.134, 245.387 488.134, 245.447 488.134, 245.507 488.134, 245.567 488.134, 245.627 488.134, 245.688 488.133, 245.748 488.133, 245.809 488.133, 245.869 488.133, 245.931 488.133, 245.992 488.132, 246.054 488.132, 246.116 488.132, 246.178 488.132, 246.241 488.132, 246.304 488.132, 246.367 488.131, 246.432 488.131, 246.496 488.131, 246.561 488.131, 246.627 488.131, 246.692 488.130, 246.759 488.130, 246.825 488.130, 246.892 488.130, 246.959 488.130, 247.026 488.129, 247.093 488.129, 247.161 488.129, 247.229 488.129, 247.296 488.129, 247.364 488.128, 247.432 488.128, 247.500 488.128, 247.568 488.128, 247.636 488.128, 247.704 488.128, 247.772 488.127, 247.840 488.127, 247.908 488.127, 247.977 488.127, 248.046 488.127, 248.114 488.126, 248.184 488.126, 248.253 488.126, 248.323 488.126, 248.393 488.126, 248.463 488.125, 248.533 488.125, 248.604 488.125, 248.676 488.125, 248.747 488.125, 248.819 488.124, 248.891 488.124, 248.964 488.124, 249.037 488.124, 249.109 488.124, 249.183 488.123, 249.256 488.123, 249.329 488.123, 249.403 488.123, 249.476 488.123, 249.550 488.122, 249.624 488.122, 249.697 488.122, 249.771 488.122, 249.845 488.122, 249.919 488.121, 249.992 488.121, 250.066 488.121, 250.140 488.121, 250.214 488.121, 250.288 488.120, 250.362 488.120, 250.437 488.120, 250.511 488.120, 250.586 488.120, 250.661 488.119, 250.736 488.119, 250.811 488.119, 250.886 488.119, 250.962 488.119, 251.038 488.118, 251.114 488.118, 251.190 488.118, 251.267 488.118, 251.343 488.118, 251.420 488.117, 251.497 488.117, 251.574 488.117, 251.651 488.117, 251.728 488.117, 251.805 488.116, 251.882 488.116, 251.960 488.116, 252.037 488.116, 252.114 488.116, 252.192 488.115, 252.269 488.115, 252.346 488.115, 252.424 488.115, 252.501 488.115, 252.579 488.114, 252.656 488.114, 252.734 488.114, 252.811 488.114, 252.889 488.114, 252.966 488.113, 253.044 488.113, 253.122 488.113, 253.199 488.113, 253.277 488.113, 253.355 488.112, 253.433 488.112, 253.511 488.112, 253.590 488.112, 253.668 488.112, 253.746 488.111, 253.824 488.111, 253.903 488.111, 253.981 488.111, 254.060 488.111, 254.138 488.110, 254.217 488.110, 254.295 488.110, 254.374 488.110, 254.453 488.110, 254.531 488.109, 254.610 488.109, 254.688 488.109, 254.767 488.109, 254.846 488.109, 254.924 488.108, 255.003 488.108, 255.081 488.108, 255.160 488.108, 255.238 488.108, 255.317 488.107, 255.395 488.107, 255.474 488.107, 255.552 488.107, 255.630 488.107, 255.708 488.106, 255.787 488.106, 255.865 488.106, 255.943 488.106, 256.021 488.106, 256.099 488.105, 256.177 488.105, 256.254 488.105, 256.332 488.105, 256.410 488.105, 256.487 488.104, 256.565 488.104, 256.643 488.104, 256.720 488.104, 256.798 488.104, 256.875 488.104, 256.953 488.103, 257.030 488.103, 257.108 488.103, 257.185 488.103, 257.263 488.103, 257.340 488.102, 257.418 488.102, 257.495 488.102, 257.572 488.102, 257.650 488.102, 257.727 488.102, 257.804 488.101, 257.881 488.101, 257.957 488.101, 258.034 488.101, 258.110 488.101, 258.187 488.100, 258.263 488.100, 258.339 488.100, 258.414 488.100, 258.490 488.100, 258.565 488.100, 258.640 488.099, 258.715 488.099, 258.790 488.099, 258.865 488.099, 258.939 488.099, 259.013 488.099, 259.088 488.098, 259.162 488.098, 259.236 488.098, 259.310 488.098, 259.384 488.098, 259.458 488.097, 259.532 488.097, 259.607 488.097, 259.680 488.097, 259.754 488.097, 259.828 488.097, 259.902 488.096, 259.976 488.096, 260.049 488.096, 260.123 488.096, 260.196 488.096, 260.269 488.096, 260.342 488.095, 260.414 488.095, 260.487 488.095, 260.559 488.095, 260.630 488.095, 260.702 488.095, 260.773 488.094, 260.843 488.094, 260.914 488.094, 260.984 488.094, 261.054 488.094, 261.123 488.094, 261.193 488.094, 261.262 488.093, 261.331 488.093, 261.399 488.093, 261.468 488.093, 261.537 488.093, 261.605 488.093, 261.673 488.093, 261.742 488.092, 261.810 488.092, 261.878 488.092, 261.947 488.092, 262.015 488.092, 262.083 488.092, 262.151 488.091, 262.219 488.091, 262.286 488.091, 262.354 488.091, 262.421 488.091, 262.488 488.091, 262.555 488.091, 262.621 488.090, 262.687 488.090, 262.752 488.090, 262.818 488.090, 262.882 488.090, 262.946 488.090, 263.010 488.090, 263.073 488.090, 263.136 488.089, 263.199 488.089, 263.261 488.089, 263.323 488.089, 263.384 488.089, 263.446 488.089, 263.507 488.089, 263.568 488.089, 263.629 488.088, 263.689 488.088, 263.750 488.088, 263.810 488.088, 263.871 488.088, 263.936 488.086, 264.026 488.082, 264.167 488.074, 264.385 488.060, 264.704 488.040, 265.151 488.012, 265.751 487.975, 266.530 487.927, 267.512 487.868, 268.724 487.795, 270.191 487.708, 271.939 487.605, 273.993 487.485, 276.379 487.346, 279.122 487.188, 282.249 487.009, 285.776 486.810, 289.688 486.593, 293.958 486.358, 298.561 486.108, 303.473 485.843, 308.668 485.564, 314.121 485.274, 319.806 484.973, 325.698 484.663, 331.773 484.344, 338.003 484.019, 344.365 483.688, 350.833 483.353, 357.380 483.016, 363.982 482.677, 370.613 482.333, 377.248 481.965, 383.861 481.546, 390.428 481.054, 396.925 480.462, 403.327 479.747, 409.608 478.882, 415.745 477.844, 421.711 476.608, 427.483 475.149, 433.035 473.441, 438.341 471.461, 443.378 469.184, 448.119 466.584, 452.540 463.638, 456.615 460.320, 460.320 456.616, 463.638 452.540, 466.584 448.119, 469.184 443.378, 471.461 438.341, 473.441 433.035, 475.148 427.483, 476.608 421.711, 477.844 415.745, 478.882 409.608, 479.747 403.327, 480.462 396.925, 481.054 390.428, 481.546 383.861, 481.965 377.248, 482.333 370.613, 482.677 363.982, 483.016 357.380, 483.353 350.833, 483.688 344.365, 484.019 338.003, 484.344 331.773, 484.663 325.698, 484.973 319.806, 485.274 314.121, 485.564 308.668, 485.843 303.473, 486.108 298.561, 486.358 293.958, 486.593 289.688, 486.810 285.776, 487.009 282.249, 487.188 279.122, 487.346 276.379, 487.485 273.993, 487.605 271.939, 487.708 270.191, 487.795 268.724, 487.868 267.512, 487.927 266.530, 487.975 265.751, 488.012 265.151, 488.040 264.704, 488.060 264.385, 488.074 264.167, 488.082 264.026, 488.086 263.936, 488.088 263.871, 488.088 263.810, 488.088 263.750, 488.088 263.689, 488.088 263.629, 488.089 263.568, 488.089 263.507, 488.089 263.446, 488.089 263.384, 488.089 263.323, 488.089 263.261, 488.089 263.199, 488.089 263.136, 488.090 263.073, 488.090 263.010, 488.090 262.946, 488.090 262.882, 488.090 262.817, 488.090 262.752, 488.090 262.687, 488.090 262.621, 488.091 262.555, 488.091 262.488, 488.091 262.421, 488.091 262.354, 488.091 262.286, 488.091 262.219, 488.091 262.151, 488.092 262.083, 488.092 262.015, 488.092 261.947, 488.092 261.878, 488.092 261.810, 488.092 261.742, 488.093 261.673, 488.093 261.605, 488.093 261.536, 488.093 261.468, 488.093 261.399, 488.093 261.331, 488.093 261.262, 488.094 261.192, 488.094 261.123, 488.094 261.054, 488.094 260.984, 488.094 260.914, 488.094 260.843, 488.094 260.773, 488.095 260.702, 488.095 260.630, 488.095 260.559, 488.095 260.487, 488.095 260.414, 488.095 260.342, 488.096 260.269, 488.096 260.196, 488.096 260.123, 488.096 260.049, 488.096 259.976, 488.096 259.902, 488.097 259.828, 488.097 259.754, 488.097 259.680, 488.097 259.607, 488.097 259.532, 488.097 259.458, 488.098 259.384, 488.098 259.310, 488.098 259.236, 488.098 259.162, 488.098 259.088, 488.099 259.013, 488.099 258.939, 488.099 258.865, 488.099 258.790, 488.099 258.715, 488.099 258.640, 488.100 258.565, 488.100 258.490, 488.100 258.414, 488.100 258.339, 488.100 258.263, 488.100 258.187, 488.101 258.110, 488.101 258.034, 488.101 257.957, 488.101 257.881, 488.101 257.804, 488.102 257.727, 488.102 257.650, 488.102 257.572, 488.102 257.495, 488.102 257.418, 488.102 257.340, 488.103 257.263, 488.103 257.185, 488.103 257.108, 488.103 257.030, 488.103 256.953, 488.104 256.875, 488.104 256.798, 488.104 256.720, 488.104 256.643, 488.104 256.565, 488.104 256.487, 488.105 256.410, 488.105 256.332, 488.105 256.254, 488.105 256.177, 488.105 256.099, 488.106 256.021, 488.106 255.943, 488.106 255.865, 488.106 255.787, 488.106 255.708, 488.107 255.630, 488.107 255.552, 488.107 255.474, 488.107 255.395, 488.107 255.317, 488.108 255.238, 488.108 255.160, 488.108 255.081, 488.108 255.003, 488.108 254.924, 488.109 254.846, 488.109 254.767, 488.109 254.688, 488.109 254.610, 488.109 254.531, 488.110 254.453, 488.110 254.374, 488.110 254.295, 488.110 254.217, 488.110 254.138, 488.111 254.060, 488.111 253.981, 488.111 253.903, 488.111 253.824, 488.111 253.746, 488.112 253.668, 488.112 253.590, 488.112 253.511, 488.112 253.433, 488.112 253.355, 488.112 253.277, 488.113 253.199, 488.113 253.122, 488.113 253.044, 488.113 252.966, 488.114 252.889, 488.114 252.811, 488.114 252.733, 488.114 252.656, 488.114 252.579, 488.115 252.501, 488.115 252.424, 488.115 252.346, 488.115 252.269, 488.115 252.192, 488.116 252.114, 488.116 252.037, 488.116 251.960, 488.116 251.882, 488.116 251.805, 488.117 251.728, 488.117 251.651, 488.117 251.574, 488.117 251.497, 488.117 251.420, 488.118 251.343, 488.118 251.267, 488.118 251.190, 488.118 251.114, 488.118 251.038, 488.119 250.962, 488.119 250.886, 488.119 250.811, 488.119 250.736, 488.119 250.661, 488.120 250.586, 488.120 250.511, 488.120 250.437, 488.120 250.363, 488.120 250.288, 488.121 250.214, 488.121 250.140, 488.121 250.066, 488.121 249.992, 488.121 249.918, 488.122 249.845, 488.122 249.771, 488.122 249.697, 488.122 249.624, 488.122 249.550, 488.123 249.476, 488.123 249.403, 488.123 249.329, 488.123 249.256, 488.123 249.183, 488.124 249.109, 488.124 249.037, 488.124 248.964, 488.124 248.891, 488.124 248.819, 488.125 248.747, 488.125 248.676, 488.125 248.604, 488.125 248.533, 488.125 248.463, 488.126 248.393, 488.126 248.323, 488.126 248.253, 488.126 248.184, 488.126 248.114, 488.127 248.046, 488.127 247.977, 488.127 247.908, 488.127 247.840, 488.127 247.772, 488.128 247.704, 488.128 247.636, 488.128 247.568, 488.128 247.500, 488.128 247.432, 488.128 247.364, 488.129 247.296, 488.129 247.229, 488.129 247.161, 488.129 247.093, 488.129 247.026, 488.130 246.959, 488.130 246.892, 488.130 246.825, 488.130 246.759, 488.130 246.692, 488.131 246.627, 488.131 246.561, 488.131 246.496, 488.131 246.432, 488.131 246.367, 488.132 246.304, 488.132 246.241, 488.132 246.178, 488.132 246.115, 488.132 246.053, 488.132 245.992, 488.133 245.931, 488.133 245.869, 488.133 245.809, 488.133 245.748, 488.133 245.688, 488.134 245.627, 488.134 245.567, 488.134 245.507, 488.134 245.447, 488.134 245.387, 488.134 245.323, 488.135 245.232, 488.135 245.088, 488.135 244.865, 488.136 244.535, 488.137 244.073, 488.138 243.452, 488.140 242.645, 488.143 241.626, 488.146 240.369, 488.150 238.846, 488.155 237.033, 488.160 234.902, 488.167 232.427, 488.174 229.583, 488.183 226.342, 488.193 222.688, 488.205 218.639, 488.217 214.223, 488.231 209.465, 488.246 204.393, 488.261 199.034, 488.278 193.414, 488.295 187.562, 488.313 181.503, 488.332 175.264, 488.351 168.872, 488.371 162.354, 488.391 155.736, 488.412 149.044, 488.433 142.306, 488.453 135.547, 488.474 128.793, 488.497 122.071, 488.533 115.407, 488.593 108.828, 488.691 102.359, 488.839 96.026, 489.049 89.856, 489.333 83.874, 489.704 78.106, 490.175 72.579, 490.758 67.316, 491.465 62.345, 492.308 57.691, 493.300 53.380, 494.453 49.402, 495.764 45.608, 497.161 42.713, 498.984 40.002, 500.894 37.622, 502.961 35.582, 505.189 33.856, 507.566 32.417, 510.080 31.239, 512.717 30.296, 515.467 29.561, 518.316 29.010, 521.252 28.614, 524.262 28.349, 527.335 28.188, 530.458 28.106, 533.618 28.075, 536.803 28.071, 540.000 28.075, 543.197 28.106, 546.382 28.188, 549.542 28.349, 552.665 28.614, 555.738 29.010, 558.748 29.561, 561.684 30.296, 564.533 31.239, 567.283 32.417, 569.920 33.856, 572.434 35.582, 574.811 37.622, 577.039 40.002, 579.106 42.713, 581.016 45.608, 582.839 49.402, 584.236 53.380, 585.547 57.691, 586.700 62.345, 587.692 67.316, 588.535 72.579, 589.242 78.106, 589.825 83.874, 590.296 89.856, 590.667 96.026, 590.951 102.359, 591.161 108.828, 591.309 115.407, 591.407 122.071, 591.467 128.793, 591.503 135.547, 591.526 142.306, 591.547 149.044, 591.567 155.736, 591.588 162.354, 591.609 168.872, 591.629 175.264, 591.649 181.503, 591.668 187.562, 591.687 193.414, 591.705 199.034, 591.722 204.393, 591.739 209.465, 591.754 214.223, 591.769 218.639, 591.783 222.688, 591.795 226.342, 591.807 229.583, 591.817 232.427, 591.826 234.902, 591.833 237.033, 591.840 238.846, 591.845 240.369, 591.850 241.626, 591.854 242.645, 591.857 243.452, 591.860 244.073, 591.862 244.535, 591.863 244.865, 591.864 245.088, 591.865 245.232, 591.865 245.323, 591.865 245.387, 591.866 245.447, 591.866 245.507, 591.866 245.567, 591.866 245.627, 591.866 245.688, 591.866 245.748, 591.867 245.809, 591.867 245.869, 591.867 245.931, 591.867 245.992, 591.867 246.053, 591.868 246.115, 591.868 246.178, 591.868 246.241, 591.868 246.304, 591.868 246.367, 591.868 246.432, 591.869 246.496, 591.869 246.561, 591.869 246.627, 591.869 246.692, 591.869 246.759, 591.870 246.825, 591.870 246.892, 591.870 246.959, 591.870 247.026, 591.870 247.093, 591.871 247.161, 591.871 247.229, 591.871 247.296, 591.871 247.364, 591.871 247.432, 591.872 247.500, 591.872 247.568, 591.872 247.636, 591.872 247.704, 591.872 247.772, 591.872 247.840, 591.873 247.908, 591.873 247.977, 591.873 248.046, 591.873 248.114, 591.873 248.184, 591.874 248.253, 591.874 248.323, 591.874 248.393, 591.874 248.463, 591.874 248.533, 591.875 248.604, 591.875 248.676, 591.875 248.747, 591.875 248.819, 591.875 248.891, 591.876 248.964, 591.876 249.037, 591.876 249.109, 591.876 249.183, 591.876 249.256, 591.877 249.329, 591.877 249.403, 591.877 249.476, 591.877 249.550, 591.877 249.624, 591.878 249.697, 591.878 249.771, 591.878 249.845, 591.878 249.918, 591.878 249.992, 591.879 250.066, 591.879 250.140, 591.879 250.214, 591.879 250.288, 591.879 250.363, 591.880 250.437, 591.880 250.511, 591.880 250.586, 591.880 250.661, 591.880 250.736, 591.881 250.811, 591.881 250.886, 591.881 250.962, 591.881 251.038, 591.881 251.114, 591.882 251.190, 591.882 251.267, 591.882 251.343, 591.882 251.420, 591.882 251.497, 591.883 251.574, 591.883 251.651, 591.883 251.728, 591.883 251.805, 591.883 251.882, 591.884 251.960, 591.884 252.037, 591.884 252.114, 591.884 252.192, 591.884 252.269, 591.885 252.346, 591.885 252.424, 591.885 252.501, 591.885 252.579, 591.885 252.656, 591.886 252.733, 591.886 252.811, 591.886 252.889, 591.886 252.966, 591.886 253.044, 591.887 253.122, 591.887 253.199, 591.887 253.277, 591.887 253.355, 591.887 253.433, 591.888 253.511, 591.888 253.590, 591.888 253.668, 591.888 253.746, 591.888 253.824, 591.889 253.903, 591.889 253.981, 591.889 254.060, 591.889 254.138, 591.889 254.217, 591.890 254.295, 591.890 254.374, 591.890 254.453, 591.890 254.531, 591.890 254.610, 591.891 254.688, 591.891 254.767, 591.891 254.846, 591.891 254.924, 591.891 255.003, 591.892 255.081, 591.892 255.160, 591.892 255.238, 591.892 255.317, 591.892 255.395, 591.893 255.474, 591.893 255.552, 591.893 255.630, 591.893 255.708, 591.893 255.787, 591.894 255.865, 591.894 255.943, 591.894 256.021, 591.894 256.099, 591.894 256.177, 591.895 256.254, 591.895 256.332, 591.895 256.410, 591.895 256.487, 591.895 256.565, 591.896 256.643, 591.896 256.720, 591.896 256.798, 591.896 256.875, 591.896 256.953, 591.896 257.030, 591.897 257.108, 591.897 257.185, 591.897 257.263, 591.897 257.340, 591.897 257.418, 591.898 257.495, 591.898 257.572, 591.898 257.650, 591.898 257.727, 591.898 257.804, 591.898 257.881, 591.899 257.957, 591.899 258.034, 591.899 258.110, 591.899 258.187, 591.899 258.263, 591.900 258.339, 591.900 258.414, 591.900 258.490, 591.900 258.565, 591.900 258.640, 591.900 258.715, 591.901 258.790, 591.901 258.865, 591.901 258.939, 591.901 259.013, 591.901 259.088, 591.901 259.162, 591.902 259.236, 591.902 259.310, 591.902 259.384, 591.902 259.458, 591.902 259.532, 591.903 259.607, 591.903 259.680, 591.903 259.754, 591.903 259.828, 591.903 259.902, 591.903 259.976, 591.904 260.049, 591.904 260.123, 591.904 260.196, 591.904 260.269, 591.904 260.342, 591.904 260.414, 591.905 260.487, 591.905 260.559, 591.905 260.630, 591.905 260.702, 591.905 260.773, 591.905 260.843, 591.906 260.914, 591.906 260.984, 591.906 261.054, 591.906 261.123, 591.906 261.192, 591.906 261.262, 591.906 261.331, 591.907 261.399, 591.907 261.468, 591.907 261.536, 591.907 261.605, 591.907 261.673, 591.907 261.742, 591.907 261.810, 591.908 261.878, 591.908 261.947, 591.908 262.015, 591.908 262.083, 591.908 262.151, 591.908 262.219, 591.909 262.286, 591.909 262.354, 591.909 262.421, 591.909 262.488, 591.909 262.555, 591.909 262.621, 591.909 262.687, 591.910 262.752, 591.910 262.817, 591.910 262.882, 591.910 262.946, 591.910 263.010, 591.910 263.073, 591.910 263.136, 591.910 263.199, 591.911 263.261, 591.911 263.323, 591.911 263.384, 591.911 263.446, 591.911 263.507, 591.911 263.568, 591.911 263.629, 591.911 263.689, 591.912 263.750, 591.912 263.810, 591.912 263.871, 591.912 263.936, 591.912 264.026, 591.914 264.167, 591.918 264.385, 591.926 264.704, 591.940 265.151, 591.960 265.751, 591.988 266.530, 592.025 267.512, 592.073 268.724, 592.132 270.191, 592.205 271.939, 592.292 273.993, 592.395 276.379, 592.515 279.122, 592.654 282.249, 592.812 285.776, 592.991 289.688, 593.190 293.958, 593.407 298.561, 593.642 303.473, 593.892 308.668, 594.157 314.121, 594.436 319.806, 594.726 325.698, 595.027 331.773, 595.337 338.003, 595.656 344.365, 595.981 350.833, 596.312 357.380, 596.647 363.982, 596.984 370.613, 597.323 377.248, 597.667 383.861, 598.035 390.428, 598.454 396.925, 598.946 403.327, 599.538 409.608, 600.253 415.745, 601.118 421.711, 602.156 427.483, 603.392 433.035, 604.851 438.341, 606.559 443.378, 608.539 448.119, 610.816 452.540, 613.416 456.615, 616.362 460.320, 619.680 463.638, 623.385 466.584, 627.460 469.184, 631.881 471.461, 636.622 473.441, 641.659 475.149, 646.965 476.608, 652.517 477.844, 658.289 478.882, 664.255 479.747, 670.392 480.462, 676.673 481.054, 683.075 481.546, 689.572 481.965, 696.139 482.333, 702.752 482.677, 709.387 483.016, 716.018 483.353, 722.620 483.688, 729.167 484.019, 735.635 484.344, 741.997 484.663, 748.227 484.973, 754.302 485.274, 760.194 485.564, 765.879 485.843, 771.332 486.108, 776.527 486.358, 781.439 486.593, 786.042 486.810, 790.312 487.009, 794.224 487.188, 797.751 487.346, 800.878 487.485, 803.621 487.605, 806.007 487.708, 808.061 487.795, 809.809 487.868, 811.276 487.927, 812.488 487.975, 813.470 488.012, 814.249 488.040, 814.849 488.060, 815.296 488.074, 815.615 488.082, 815.833 488.086, 815.974 488.088, 816.064 488.088, 816.129 488.088, 816.190 488.088, 816.250 488.088, 816.311 488.089, 816.371 488.089, 816.432 488.089, 816.493 488.089, 816.554 488.089, 816.616 488.089, 816.677 488.089, 816.739 488.089, 816.801 488.090, 816.864 488.090, 816.927 488.090, 816.990 488.090, 817.054 488.090, 817.118 488.090, 817.182 488.090, 817.248 488.090, 817.313 488.091, 817.379 488.091, 817.445 488.091, 817.512 488.091, 817.579 488.091, 817.646 488.091, 817.714 488.091, 817.781 488.092, 817.849 488.092, 817.917 488.092, 817.985 488.092, 818.053 488.092, 818.122 488.092, 818.190 488.093, 818.258 488.093, 818.327 488.093, 818.395 488.093, 818.463 488.093, 818.532 488.093, 818.601 488.093, 818.669 488.094, 818.738 488.094, 818.807 488.094, 818.877 488.094, 818.946 488.094, 819.016 488.094, 819.086 488.094, 819.157 488.095, 819.227 488.095, 819.298 488.095, 819.370 488.095, 819.441 488.095, 819.513 488.095, 819.585 488.096, 819.658 488.096, 819.731 488.096, 819.804 488.096, 819.877 488.096, 819.951 488.096, 820.024 488.097, 820.098 488.097, 820.172 488.097, 820.246 488.097, 820.319 488.097, 820.393 488.097, 820.467 488.098, 820.542 488.098, 820.616 488.098, 820.690 488.098, 820.764 488.098, 820.838 488.099, 820.912 488.099, 820.986 488.099, 821.061 488.099, 821.135 488.099, 821.210 488.099, 821.285 488.100, 821.360 488.100, 821.435 488.100, 821.510 488.100, 821.586 488.100, 821.661 488.100, 821.737 488.101, 821.813 488.101, 821.889 488.101, 821.966 488.101, 822.043 488.101, 822.119 488.102, 822.196 488.102, 822.273 488.102, 822.350 488.102, 822.428 488.102, 822.505 488.102, 822.582 488.103, 822.660 488.103, 822.737 488.103, 822.815 488.103, 822.892 488.103, 822.970 488.104, 823.047 488.104, 823.125 488.104, 823.202 488.104, 823.280 488.104, 823.357 488.104, 823.435 488.105, 823.513 488.105, 823.590 488.105, 823.668 488.105, 823.746 488.105, 823.823 488.106, 823.901 488.106, 823.979 488.106, 824.057 488.106, 824.135 488.106, 824.213 488.107, 824.291 488.107, 824.370 488.107, 824.448 488.107, 824.526 488.107, 824.605 488.108, 824.683 488.108, 824.762 488.108, 824.840 488.108, 824.919 488.108, 824.997 488.109, 825.076 488.109, 825.154 488.109, 825.233 488.109, 825.312 488.109, 825.390 488.110, 825.469 488.110, 825.547 488.110, 825.626 488.110, 825.705 488.110, 825.783 488.111, 825.862 488.111, 825.940 488.111, 826.019 488.111, 826.097 488.111, 826.176 488.112, 826.254 488.112, 826.332 488.112, 826.410 488.112, 826.489 488.112, 826.567 488.113, 826.645 488.113, 826.723 488.113, 826.801 488.113, 826.878 488.113, 826.956 488.114, 827.034 488.114, 827.111 488.114, 827.189 488.114, 827.266 488.114, 827.344 488.115, 827.421 488.115, 827.499 488.115, 827.576 488.115, 827.654 488.115, 827.731 488.116, 827.808 488.116, 827.886 488.116, 827.963 488.116, 828.040 488.116, 828.118 488.117, 828.195 488.117, 828.272 488.117, 828.349 488.117, 828.426 488.117, 828.503 488.118, 828.580 488.118, 828.657 488.118, 828.733 488.118, 828.810 488.118, 828.886 488.119, 828.962 488.119, 829.038 488.119, 829.113 488.119, 829.189 488.119, 829.264 488.120, 829.339 488.120, 829.414 488.120, 829.489 488.120, 829.563 488.120, 829.637 488.121, 829.712 488.121, 829.786 488.121, 829.860 488.121, 829.934 488.121, 830.008 488.122, 830.081 488.122, 830.155 488.122, 830.229 488.122, 830.303 488.122, 830.376 488.123, 830.450 488.123, 830.524 488.123, 830.597 488.123, 830.671 488.123, 830.744 488.124, 830.817 488.124, 830.891 488.124, 830.963 488.124, 831.036 488.124, 831.109 488.125, 831.181 488.125, 831.253 488.125, 831.324 488.125, 831.396 488.125, 831.467 488.126, 831.537 488.126, 831.607 488.126, 831.677 488.126, 831.747 488.126, 831.816 488.127, 831.885 488.127, 831.954 488.127, 832.023 488.127, 832.092 488.127, 832.160 488.128, 832.228 488.128, 832.296 488.128, 832.364 488.128, 832.432 488.128, 832.500 488.128, 832.568 488.129, 832.636 488.129, 832.704 488.129, 832.771 488.129, 832.839 488.129, 832.907 488.130, 832.974 488.130, 833.041 488.130, 833.108 488.130, 833.175 488.130, 833.241 488.131, 833.307 488.131, 833.373 488.131, 833.439 488.131, 833.504 488.131, 833.568 488.132, 833.633 488.132, 833.696 488.132, 833.759 488.132, 833.822 488.132, 833.884 488.132, 833.946 488.133, 834.008 488.133, 834.069 488.133, 834.131 488.133, 834.191 488.133, 834.252 488.134, 834.312 488.134, 834.373 488.134, 834.433 488.134, 834.493 488.134, 834.553 488.134, 834.613 488.135, 834.677 488.135, 834.768 488.135, 834.912 488.136, 835.135 488.137, 835.465 488.138, 835.927 488.140, 836.548 488.143, 837.355 488.146, 838.374 488.150, 839.631 488.155, 841.154 488.160, 842.967 488.167, 845.098 488.174, 847.573 488.183, 850.417 488.193, 853.658 488.205, 857.312 488.217, 861.361 488.231, 865.777 488.246, 870.535 488.261, 875.607 488.278, 880.966 488.295, 886.586 488.313, 892.438 488.332, 898.497 488.351, 904.736 488.371, 911.128 488.391, 917.646 488.412, 924.264 488.433, 930.956 488.453, 937.694 488.474, 944.453 488.497, 951.207 488.533, 957.929 488.593, 964.593 488.691, 971.172 488.839, 977.641 489.049, 983.974 489.333, 990.144 489.704, 996.126 490.175, 1001.894 490.758, 1007.421 491.465, 1012.684 492.308, 1017.655 493.300, 1022.309 494.453, 1026.620 495.764, 1030.598 497.161, 1034.392 498.984, 1037.287 500.894, 1039.998 502.961, 1042.378 505.189, 1044.418 507.566, 1046.144 510.080, 1047.583 512.717, 1048.761 515.467, 1049.704 518.316, 1050.439 521.252, 1050.990 524.262, 1051.386 527.335, 1051.651 530.458, 1051.812 533.618, 1051.894 536.803, 1051.925 540.000, 1051.929 543.197, 1051.925 546.382, 1051.894 549.542, 1051.812 552.665, 1051.651 555.738, 1051.386 558.748, 1050.990 561.684, 1050.439 564.533, 1049.704 567.283, 1048.761 569.920, 1047.583 572.434, 1046.144 574.811, 1044.418 577.039, 1042.378 579.106, 1039.998 581.016, 1037.287 582.839, 1034.392 584.236, 1030.598 585.547, 1026.620 586.700, 1022.309 587.692, 1017.655 588.535, 1012.684 589.242, 1007.421 589.825, 1001.894 590.296, 996.126 590.667, 990.144 590.951, 983.974 591.161, 977.641 591.309, 971.172 591.407, 964.593 591.467, 957.929 591.503, 951.207 591.526, 944.453 591.547, 937.694 591.567, 930.956 591.588, 924.264 591.609, 917.646 591.629, 911.128 591.649, 904.736 591.668, 898.497 591.687, 892.438 591.705, 886.586 591.722, 880.966 591.739, 875.607 591.754, 870.535 591.769, 865.777 591.783, 861.361 591.795, 857.312 591.807, 853.658 591.817, 850.417 591.826, 847.573 591.833, 845.098 591.840, 842.967 591.845, 841.154 591.850, 839.631 591.854, 838.374 591.857, 837.355 591.860, 836.548 591.862, 835.927 591.863, 835.465 591.864, 835.135 591.865, 834.912 591.865, 834.768 591.865, 834.677 591.866, 834.613 591.866, 834.553 591.866, 834.493 591.866, 834.433 591.866, 834.373 591.866, 834.312 591.867, 834.252 591.867, 834.191 591.867, 834.131 591.867, 834.069 591.867, 834.008 591.868, 833.946 591.868, 833.884 591.868, 833.822 591.868, 833.759 591.868, 833.696 591.868, 833.633 591.869, 833.568 591.869, 833.504 591.869, 833.439 591.869, 833.373 591.869, 833.307 591.870, 833.241 591.870, 833.175 591.870, 833.108 591.870, 833.041 591.870, 832.974 591.871, 832.907 591.871, 832.839 591.871, 832.771 591.871, 832.704 591.871, 832.636 591.872, 832.568 591.872, 832.500 591.872, 832.432 591.872, 832.364 591.872, 832.296 591.872, 832.228 591.873, 832.160 591.873, 832.092 591.873, 832.023 591.873, 831.954 591.873, 831.885 591.874, 831.816 591.874, 831.747 591.874, 831.677 591.874, 831.607 591.874, 831.537 591.875, 831.467 591.875, 831.396 591.875, 831.324 591.875, 831.253 591.875, 831.181 591.876, 831.109 591.876, 831.036 591.876, 830.963 591.876, 830.891 591.876, 830.817 591.877, 830.744 591.877, 830.671 591.877, 830.597 591.877, 830.524 591.877, 830.450 591.878, 830.376 591.878, 830.303 591.878, 830.229 591.878, 830.155 591.878, 830.081 591.879, 830.008 591.879, 829.934 591.879, 829.860 591.879, 829.786 591.879, 829.712 591.880, 829.637 591.880, 829.563 591.880, 829.489 591.880, 829.414 591.880, 829.339 591.881, 829.264 591.881, 829.189 591.881, 829.113 591.881, 829.038 591.881, 828.962 591.882, 828.886 591.882, 828.810 591.882, 828.733 591.882, 828.657 591.882, 828.580 591.883, 828.503 591.883, 828.426 591.883, 828.349 591.883, 828.272 591.883, 828.195 591.884, 828.118 591.884, 828.040 591.884, 827.963 591.884, 827.886 591.884, 827.808 591.885, 827.731 591.885, 827.654 591.885, 827.576 591.885, 827.499 591.885, 827.421 591.886, 827.344 591.886, 827.266 591.886, 827.189 591.886, 827.111 591.886, 827.034 591.887, 826.956 591.887, 826.878 591.887, 826.801 591.887, 826.723 591.888, 826.645 591.888, 826.567 591.888, 826.489 591.888, 826.410 591.888, 826.332 591.888, 826.254 591.889, 826.176 591.889, 826.097 591.889, 826.019 591.889, 825.940 591.889, 825.862 591.890, 825.783 591.890, 825.705 591.890, 825.626 591.890, 825.547 591.890, 825.469 591.891, 825.390 591.891, 825.312 591.891, 825.233 591.891, 825.154 591.891, 825.076 591.892, 824.997 591.892, 824.919 591.892, 824.840 591.892, 824.762 591.892, 824.683 591.893, 824.605 591.893, 824.526 591.893, 824.448 591.893, 824.370 591.893, 824.291 591.894, 824.213 591.894, 824.135 591.894, 824.057 591.894, 823.979 591.894, 823.901 591.895, 823.823 591.895, 823.746 591.895, 823.668 591.895, 823.590 591.895, 823.513 591.896, 823.435 591.896, 823.357 591.896, 823.280 591.896, 823.202 591.896, 823.125 591.896, 823.047 591.897, 822.970 591.897, 822.892 591.897, 822.815 591.897, 822.737 591.897, 822.660 591.898, 822.582 591.898, 822.505 591.898, 822.428 591.898, 822.350 591.898, 822.273 591.898, 822.196 591.899, 822.119 591.899, 822.043 591.899, 821.966 591.899, 821.889 591.899, 821.813 591.900, 821.737 591.900, 821.661 591.900, 821.586 591.900, 821.510 591.900, 821.435 591.900, 821.360 591.901, 821.285 591.901, 821.210 591.901, 821.135 591.901, 821.061 591.901, 820.986 591.901, 820.912 591.902, 820.838 591.902, 820.764 591.902, 820.690 591.902, 820.616 591.902, 820.542 591.903, 820.467 591.903, 820.393 591.903, 820.319 591.903, 820.246 591.903, 820.172 591.903, 820.098 591.904, 820.024 591.904, 819.951 591.904, 819.877 591.904, 819.804 591.904, 819.731 591.904, 819.658 591.905, 819.585 591.905, 819.513 591.905, 819.441 591.905, 819.370 591.905, 819.298 591.905, 819.227 591.906, 819.157 591.906, 819.086 591.906, 819.016 591.906, 818.946 591.906, 818.877 591.906, 818.807 591.906, 818.738 591.907, 818.669 591.907, 818.601 591.907, 818.532 591.907, 818.463 591.907, 818.395 591.907, 818.327 591.907, 818.258 591.908, 818.190 591.908, 818.122 591.908, 818.053 591.908, 817.985 591.908, 817.917 591.908, 817.849 591.909, 817.781 591.909, 817.714 591.909, 817.646 591.909, 817.579 591.909, 817.512 591.909, 817.445 591.909, 817.379 591.910, 817.313 591.910, 817.248 591.910, 817.182 591.910, 817.118 591.910, 817.054 591.910, 816.990 591.910, 816.927 591.910, 816.864 591.911, 816.801 591.911, 816.739 591.911, 816.677 591.911, 816.616 591.911, 816.554 591.911, 816.493 591.911, 816.432 591.911, 816.371 591.912, 816.311 591.912, 816.250 591.912, 816.190 591.912, 816.129 591.912, 816.064 591.914, 815.974 591.918, 815.833 591.926, 815.615 591.940, 815.296 591.960, 814.849 591.988, 814.249 592.025, 813.470 592.073, 812.488 592.132, 811.276 592.205, 809.809 592.292, 808.061 592.395, 806.007 592.515, 803.621 592.654, 800.878 592.812, 797.751 592.991, 794.224 593.190, 790.312 593.407, 786.042 593.642, 781.439 593.892, 776.527 594.157, 771.332 594.436, 765.879 594.726, 760.194 595.027, 754.302 595.337, 748.227 595.656, 741.997 595.981, 735.635 596.312, 729.167 596.647, 722.620 596.984, 716.018 597.323, 709.387 597.667, 702.752 598.035, 696.139 598.454, 689.572 598.946, 683.075 599.538, 676.673 600.253, 670.392 601.118, 664.255 602.156, 658.289 603.392, 652.517 604.852, 646.965 606.559, 641.659 608.539, 636.622 610.816, 631.881 613.416, 627.460 616.362, 623.385 619.680, 619.680 623.385, 616.362 627.460, 613.416 631.881, 610.816 636.622, 608.539 641.659, 606.559 646.965, 604.851 652.517, 603.392 658.289, 602.156 664.255, 601.118 670.392, 600.253 676.673, 599.538 683.075, 598.946 689.572, 598.454 696.139, 598.035 702.752, 597.667 709.387, 597.323 716.018, 596.984 722.620, 596.647 729.167, 596.312 735.635, 595.981 741.997, 595.656 748.227, 595.337 754.302, 595.027 760.194, 594.726 765.879, 594.436 771.332, 594.157 776.527, 593.892 781.439, 593.642 786.042, 593.407 790.312, 593.190 794.224, 592.991 797.751, 592.812 800.878, 592.654 803.621, 592.515 806.007, 592.395 808.061, 592.292 809.809, 592.205 811.276, 592.132 812.488, 592.073 813.470, 592.025 814.249, 591.988 814.849, 591.960 815.296, 591.940 815.615, 591.926 815.833, 591.918 815.974, 591.914 816.064, 591.912 816.129, 591.912 816.190, 591.912 816.250, 591.912 816.311, 591.912 816.371, 591.911 816.432, 591.911 816.493, 591.911 816.554, 591.911 816.616, 591.911 816.677, 591.911 816.739, 591.911 816.801, 591.911 816.864, 591.910 816.927, 591.910 816.990, 591.910 817.054, 591.910 817.118, 591.910 817.182, 591.910 817.248, 591.910 817.313, 591.910 817.379, 591.909 817.445, 591.909 817.512, 591.909 817.579, 591.909 817.646, 591.909 817.714, 591.909 817.781, 591.909 817.849, 591.908 817.917, 591.908 817.985, 591.908 818.053, 591.908 818.122, 591.908 818.190, 591.908 818.258, 591.907 818.327, 591.907 818.395, 591.907 818.463, 591.907 818.532, 591.907 818.601, 591.907 818.669, 591.907 818.738, 591.906 818.807, 591.906 818.877, 591.906 818.946, 591.906 819.016, 591.906 819.086, 591.906 819.157, 591.906 819.227, 591.905 819.298, 591.905 819.370, 591.905 819.441, 591.905 819.513, 591.905 819.586, 591.905 819.658, 591.904 819.731, 591.904 819.804, 591.904 819.877, 591.904 819.951, 591.904 820.024, 591.904 820.098, 591.903 820.172, 591.903 820.245, 591.903 820.319, 591.903 820.393, 591.903 820.467, 591.903 820.542, 591.902 820.616, 591.902 820.690, 591.902 820.764, 591.902 820.838, 591.902 820.912, 591.901 820.987, 591.901 821.061, 591.901 821.135, 591.901 821.210, 591.901 821.285, 591.901 821.360, 591.900 821.435, 591.900 821.510, 591.900 821.586, 591.900 821.661, 591.900 821.737, 591.900 821.813, 591.899 821.890, 591.899 821.966, 591.899 822.043, 591.899 822.119, 591.899 822.196, 591.898 822.273, 591.898 822.350, 591.898 822.428, 591.898 822.505, 591.898 822.582, 591.898 822.660, 591.897 822.737, 591.897 822.815, 591.897 822.892, 591.897 822.970, 591.897 823.047, 591.896 823.125, 591.896 823.202, 591.896 823.280, 591.896 823.357, 591.896 823.435, 591.896 823.513, 591.895 823.590, 591.895 823.668, 591.895 823.746, 591.895 823.823, 591.895 823.901, 591.894 823.979, 591.894 824.057, 591.894 824.135, 591.894 824.213, 591.894 824.291, 591.893 824.370, 591.893 824.448, 591.893 824.526, 591.893 824.605, 591.893 824.683, 591.892 824.762, 591.892 824.840, 591.892 824.919, 591.892 824.997, 591.892 825.076, 591.891 825.154, 591.891 825.233, 591.891 825.312, 591.891 825.390, 591.891 825.469, 591.890 825.547, 591.890 825.626, 591.890 825.705, 591.890 825.783, 591.890 825.862, 591.889 825.940, 591.889 826.019, 591.889 826.097, 591.889 826.176, 591.889 826.254, 591.888 826.332, 591.888 826.410, 591.888 826.489, 591.888 826.567, 591.888 826.645, 591.887 826.723, 591.887 826.800, 591.887 826.878, 591.887 826.956, 591.887 827.034, 591.886 827.111, 591.886 827.189, 591.886 827.266, 591.886 827.344, 591.886 827.421, 591.885 827.499, 591.885 827.576, 591.885 827.654, 591.885 827.731, 591.885 827.808, 591.884 827.886, 591.884 827.963, 591.884 828.040, 591.884 828.118, 591.884 828.195, 591.883 828.272, 591.883 828.349, 591.883 828.426, 591.883 828.503, 591.883 828.580, 591.882 828.657, 591.882 828.733, 591.882 828.810, 591.882 828.886, 591.882 828.962, 591.881 829.038, 591.881 829.114, 591.881 829.189, 591.881 829.264, 591.881 829.339, 591.880 829.414, 591.880 829.489, 591.880 829.563, 591.880 829.637, 591.880 829.712, 591.879 829.786, 591.879 829.860, 591.879 829.934, 591.879 830.008, 591.879 830.081, 591.878 830.155, 591.878 830.229, 591.878 830.303, 591.878 830.376, 591.878 830.450, 591.877 830.524, 591.877 830.597, 591.877 830.671, 591.877 830.744, 591.877 830.817, 591.876 830.891, 591.876 830.963, 591.876 831.036, 591.876 831.109, 591.876 831.181, 591.875 831.253, 591.875 831.324, 591.875 831.396, 591.875 831.467, 591.875 831.537, 591.874 831.607, 591.874 831.677, 591.874 831.747, 591.874 831.816, 591.874 831.886, 591.873 831.954, 591.873 832.023, 591.873 832.092, 591.873 832.160, 591.873 832.228, 591.872 832.296, 591.872 832.364, 591.872 832.432, 591.872 832.500, 591.872 832.568, 591.872 832.636, 591.871 832.704, 591.871 832.771, 591.871 832.839, 591.871 832.907, 591.871 832.974, 591.870 833.041, 591.870 833.108, 591.870 833.175, 591.870 833.241, 591.870 833.307, 591.869 833.373, 591.869 833.439, 591.869 833.504, 591.869 833.568, 591.869 833.633, 591.868 833.696, 591.868 833.759, 591.868 833.822, 591.868 833.884, 591.868 833.946, 591.868 834.008, 591.867 834.069, 591.867 834.131, 591.867 834.191, 591.867 834.252, 591.867 834.312, 591.866 834.373, 591.866 834.433, 591.866 834.493, 591.866 834.553, 591.866 834.613, 591.866 834.677, 591.865 834.768, 591.865 834.912, 591.865 835.135, 591.864 835.465, 591.863 835.927, 591.862 836.548, 591.860 837.355, 591.857 838.374, 591.854 839.631, 591.850 841.154, 591.845 842.967, 591.840 845.098, 591.833 847.573, 591.826 850.417, 591.817 853.658, 591.807 " fill="none" stroke="rgb(0, 0, 0)" stroke-linecap="butt" stroke-linejoin="round" stroke-opacity="1.0" stroke-width="3.0" />
        </g>
    </g>
</svg>
