<?xml version='1.0' encoding='ascii'?>
<svg xmlns="http://www.w3.org/2000/svg" height="1080" version="1.1" width="1080">
    <g id="View Layer_LineSet" inkscape:groupmode="lineset" inkscape:label="View Layer_LineSet" xmlns:inkscape="http://www.inkscape.org/namespaces/inkscape">
        <g id="strokes" inkscape:groupmode="layer" inkscape:label="strokes" xmlns:inkscape="http://www.inkscape.org/namespaces/inkscape">
            <path d=" M 692.216, 565.141 693.990, 565.136 695.954, 565.130 698.098, 565.123 700.407, 565.116 702.868, 565.109 705.469, 565.100 708.196, 565.092 711.036, 565.083 713.977, 565.074 717.004, 565.065 720.106, 565.055 723.269, 565.045 726.481, 565.035 729.728, 565.025 732.999, 565.015 736.279, 565.005 739.556, 564.994 742.818, 564.977 746.052, 564.947 749.245, 564.900 752.385, 564.828 755.458, 564.726 758.452, 564.588 761.355, 564.408 764.154, 564.180 766.837, 563.897 769.391, 563.554 771.803, 563.145 774.062, 562.663 776.154, 562.104 778.084, 561.468 779.925, 560.790 781.330, 559.905 782.646, 558.978 783.801, 557.975 784.791, 556.894 785.629, 555.740 786.327, 554.520 786.899, 553.240 787.356, 551.906 787.713, 550.523 787.981, 549.099 788.173, 547.638 788.301, 546.146 788.379, 544.631 788.419, 543.097 788.434, 541.552 788.436, 540.000 788.434, 538.448 788.419, 536.903 788.379, 535.369 788.301, 533.854 788.173, 532.362 787.981, 530.901 787.713, 529.477 787.356, 528.094 786.899, 526.760 786.327, 525.480 785.629, 524.260 784.791, 523.106 783.801, 522.025 782.646, 521.022 781.330, 520.095 779.925, 519.210 778.084, 518.532 776.154, 517.896 774.062, 517.337 771.803, 516.855 769.391, 516.446 766.837, 516.103 764.154, 515.820 761.355, 515.592 758.452, 515.412 755.458, 515.274 752.385, 515.172 749.245, 515.100 746.052, 515.053 742.818, 515.023 739.556, 515.006 736.279, 514.995 732.999, 514.985 729.728, 514.975 726.481, 514.965 723.269, 514.955 720.106, 514.945 717.004, 514.935 713.977, 514.926 711.036, 514.917 708.196, 514.908 705.469, 514.900 702.868, 514.891 700.407, 514.884 698.098, 514.877 695.954, 514.870 693.990, 514.864 692.216, 514.859 690.644, 514.854 689.263, 514.849 688.062, 514.846 687.028, 514.842 686.148, 514.840 685.409, 514.837 684.799, 514.836 684.305, 514.834 683.913, 514.833 683.612, 514.832 683.387, 514.831 683.227, 514.831 683.119, 514.830 683.049, 514.830 683.005, 514.830 682.974, 514.830 682.945, 514.830 682.916, 514.830 682.886, 514.830 682.857, 514.830 682.828, 514.830 682.799, 514.829 682.769, 514.829 682.740, 514.829 682.710, 514.829 682.680, 514.829 682.651, 514.829 682.620, 514.829 682.590, 514.829 682.560, 514.829 682.529, 514.829 682.498, 514.829 682.467, 514.828 682.436, 514.828 682.404, 514.828 682.372, 514.828 682.340, 514.828 682.308, 514.828 682.276, 514.828 682.244, 514.828 682.211, 514.828 682.179, 514.828 682.146, 514.828 682.113, 514.827 682.080, 514.827 682.047, 514.827 682.014, 514.827 681.982, 514.827 681.949, 514.827 681.916, 514.827 681.883, 514.827 681.850, 514.827 681.817, 514.827 681.784, 514.826 681.750, 514.826 681.717, 514.826 681.684, 514.826 681.650, 514.826 681.617, 514.826 681.583, 514.826 681.549, 514.826 681.515, 514.826 681.481, 514.826 681.447, 514.826 681.413, 514.825 681.378, 514.825 681.343, 514.825 681.308, 514.825 681.273, 514.825 681.238, 514.825 681.203, 514.825 681.167, 514.825 681.132, 514.825 681.096, 514.825 681.061, 514.824 681.025, 514.824 680.990, 514.824 680.954, 514.824 680.918, 514.824 680.882, 514.824 680.846, 514.824 680.811, 514.824 680.775, 514.824 680.739, 514.824 680.703, 514.823 680.667, 514.823 680.631, 514.823 680.595, 514.823 680.559, 514.823 680.523, 514.823 680.487, 514.823 680.451, 514.823 680.415, 514.823 680.378, 514.823 680.342, 514.823 680.305, 514.822 680.268, 514.822 680.232, 514.822 680.195, 514.822 680.158, 514.822 680.121, 514.822 680.083, 514.822 680.046, 514.822 680.009, 514.822 679.972, 514.822 679.934, 514.821 679.897, 514.821 679.859, 514.821 679.822, 514.821 679.784, 514.821 679.747, 514.821 679.709, 514.821 679.672, 514.821 679.634, 514.821 679.597, 514.821 679.559, 514.820 679.521, 514.820 679.484, 514.820 679.446, 514.820 679.409, 514.820 679.371, 514.820 679.333, 514.820 679.296, 514.820 679.258, 514.820 679.220, 514.820 679.183, 514.820 679.145, 514.819 679.107, 514.819 679.069, 514.819 679.031, 514.819 678.993, 514.819 678.955, 514.819 678.917, 514.819 678.879, 514.819 678.841, 514.819 678.803, 514.819 678.765, 514.818 678.727, 514.818 678.689, 514.818 678.651, 514.818 678.613, 514.818 678.575, 514.818 678.536, 514.818 678.498, 514.818 678.460, 514.818 678.422, 514.818 678.384, 514.818 678.346, 514.817 678.307, 514.817 678.269, 514.817 678.231, 514.817 678.193, 514.817 678.155, 514.817 678.117, 514.817 678.079, 514.817 678.041, 514.817 678.003, 514.817 677.965, 514.816 677.927, 514.816 677.889, 514.816 677.851, 514.816 677.813, 514.816 677.776, 514.816 677.738, 514.816 677.700, 514.816 677.662, 514.816 677.625, 514.816 677.587, 514.815 677.549, 514.815 677.512, 514.815 677.474, 514.815 677.436, 514.815 677.399, 514.815 677.361, 514.815 677.324, 514.815 677.286, 514.815 677.248, 514.815 677.211, 514.815 677.173, 514.815 677.135, 514.814 677.098, 514.814 677.060, 514.814 677.023, 514.814 676.986, 514.814 676.948, 514.814 676.911, 514.814 676.874, 514.814 676.836, 514.814 676.799, 514.814 676.762, 514.814 676.725, 514.813 676.689, 514.813 676.652, 514.813 676.615, 514.813 676.579, 514.813 676.542, 514.813 676.506, 514.813 676.470, 514.813 676.433, 514.813 676.397, 514.813 676.361, 514.813 676.325, 514.812 676.289, 514.812 676.253, 514.812 676.217, 514.812 676.181, 514.812 676.145, 514.812 676.109, 514.812 676.073, 514.812 676.037, 514.812 676.002, 514.812 675.966, 514.812 675.930, 514.812 675.894, 514.812 675.858, 514.811 675.823, 514.811 675.787, 514.811 675.752, 514.811 675.716, 514.811 675.681, 514.811 675.646, 514.811 675.611, 514.811 675.576, 514.811 675.542, 514.811 675.507, 514.811 675.473, 514.811 675.439, 514.810 675.405, 514.810 675.371, 514.810 675.337, 514.810 675.304, 514.810 675.270, 514.810 675.237, 514.810 675.203, 514.810 675.170, 514.810 675.137, 514.810 675.104, 514.810 675.070, 514.810 675.037, 514.810 675.004, 514.810 674.971, 514.809 674.938, 514.809 674.905, 514.809 674.872, 514.809 674.839, 514.809 674.806, 514.809 674.773, 514.809 674.740, 514.809 674.707, 514.809 674.675, 514.809 674.643, 514.809 674.610, 514.809 674.578, 514.809 674.547, 514.809 674.515, 514.808 674.484, 514.808 674.453, 514.808 674.422, 514.808 674.391, 514.808 674.360, 514.808 674.330, 514.808 674.300, 514.808 674.270, 514.808 674.240, 514.808 674.210, 514.808 674.180, 514.808 674.151, 514.808 674.121, 514.808 674.092, 514.808 674.063, 514.808 674.033, 514.807 674.004, 514.807 673.972, 514.807 673.929, 514.806 673.860, 514.804 673.754, 514.800 673.599, 514.794 673.382, 514.784 673.091, 514.771 672.713, 514.753 672.237, 514.729 671.649, 514.700 670.937, 514.665 670.089, 514.623 669.092, 514.573 667.934, 514.515 666.603, 514.447 665.085, 514.371 663.373, 514.284 661.475, 514.187 659.403, 514.082 657.169, 513.968 654.785, 513.846 652.264, 513.718 649.618, 513.583 646.859, 513.442 643.999, 513.296 641.052, 513.145 638.028, 512.991 634.940, 512.833 631.802, 512.672 628.624, 512.510 625.420, 512.346 622.202, 512.181 618.983, 512.015 615.773, 511.836 612.586, 511.633 609.433, 511.394 606.327, 511.107 603.278, 510.759 600.300, 510.340 597.405, 509.836 594.604, 509.236 591.910, 508.528 589.334, 507.699 586.890, 506.738 584.589, 505.633 582.444, 504.372 580.466, 502.942 578.668, 501.332 577.058, 499.534 575.628, 497.556 574.367, 495.411 573.262, 493.110 572.301, 490.666 571.472, 488.090 570.764, 485.396 570.164, 482.595 569.660, 479.700 569.241, 476.722 568.893, 473.673 568.606, 470.567 568.367, 467.414 568.164, 464.227 567.985, 461.017 567.819, 457.798 567.654, 454.580 567.490, 451.376 567.328, 448.198 567.167, 445.060 567.009, 441.972 566.855, 438.948 566.704, 436.001 566.558, 433.141 566.417, 430.382 566.282, 427.736 566.154, 425.215 566.032, 422.831 565.918, 420.597 565.813, 418.525 565.716, 416.627 565.629, 414.915 565.553, 413.397 565.485, 412.066 565.427, 410.908 565.377, 409.911 565.335, 409.063 565.300, 408.351 565.271, 407.763 565.247, 407.287 565.229, 406.909 565.216, 406.618 565.206, 406.401 565.200, 406.246 565.196, 406.140 565.194, 406.071 565.193, 406.028 565.193, 405.996 565.193, 405.967 565.192, 405.937 565.192, 405.908 565.192, 405.879 565.192, 405.849 565.192, 405.819 565.192, 405.790 565.192, 405.760 565.192, 405.730 565.192, 405.700 565.192, 405.670 565.192, 405.640 565.192, 405.609 565.192, 405.578 565.192, 405.547 565.192, 405.516 565.192, 405.485 565.191, 405.453 565.191, 405.422 565.191, 405.390 565.191, 405.357 565.191, 405.325 565.191, 405.293 565.191, 405.260 565.191, 405.227 565.191, 405.194 565.191, 405.161 565.191, 405.128 565.191, 405.095 565.191, 405.062 565.191, 405.029 565.190, 404.996 565.190, 404.963 565.190, 404.930 565.190, 404.896 565.190, 404.863 565.190, 404.830 565.190, 404.797 565.190, 404.763 565.190, 404.730 565.190, 404.696 565.190, 404.663 565.190, 404.629 565.190, 404.595 565.190, 404.561 565.189, 404.527 565.189, 404.493 565.189, 404.458 565.189, 404.424 565.189, 404.389 565.189, 404.354 565.189, 404.319 565.189, 404.284 565.189, 404.248 565.189, 404.213 565.189, 404.177 565.189, 404.142 565.188, 404.106 565.188, 404.070 565.188, 404.034 565.188, 403.998 565.188, 403.963 565.188, 403.927 565.188, 403.891 565.188, 403.855 565.188, 403.819 565.188, 403.783 565.188, 403.747 565.188, 403.711 565.188, 403.675 565.187, 403.639 565.187, 403.603 565.187, 403.567 565.187, 403.530 565.187, 403.494 565.187, 403.458 565.187, 403.421 565.187, 403.385 565.187, 403.348 565.187, 403.311 565.187, 403.275 565.186, 403.238 565.186, 403.201 565.186, 403.164 565.186, 403.126 565.186, 403.089 565.186, 403.052 565.186, 403.014 565.186, 402.977 565.186, 402.940 565.186, 402.902 565.186, 402.865 565.185, 402.827 565.185, 402.789 565.185, 402.752 565.185, 402.714 565.185, 402.676 565.185, 402.639 565.185, 402.601 565.185, 402.564 565.185, 402.526 565.185, 402.488 565.185, 402.451 565.185, 402.413 565.184, 402.375 565.184, 402.338 565.184, 402.300 565.184, 402.262 565.184, 402.224 565.184, 402.187 565.184, 402.149 565.184, 402.111 565.184, 402.073 565.184, 402.035 565.183, 401.997 565.183, 401.959 565.183, 401.921 565.183, 401.883 565.183, 401.845 565.183, 401.807 565.183, 401.769 565.183, 401.731 565.183, 401.693 565.183, 401.654 565.182, 401.616 565.182, 401.578 565.182, 401.540 565.182, 401.502 565.182, 401.464 565.182, 401.425 565.182, 401.387 565.182, 401.349 565.182, 401.311 565.182, 401.273 565.182, 401.235 565.181, 401.197 565.181, 401.159 565.181, 401.121 565.181, 401.083 565.181, 401.045 565.181, 401.007 565.181, 400.969 565.181, 400.931 565.181, 400.893 565.181, 400.855 565.180, 400.817 565.180, 400.780 565.180, 400.742 565.180, 400.704 565.180, 400.667 565.180, 400.629 565.180, 400.591 565.180, 400.554 565.180, 400.516 565.180, 400.479 565.180, 400.441 565.179, 400.403 565.179, 400.366 565.179, 400.328 565.179, 400.291 565.179, 400.253 565.179, 400.216 565.179, 400.178 565.179, 400.141 565.179, 400.103 565.179, 400.066 565.178, 400.028 565.178, 399.991 565.178, 399.954 565.178, 399.917 565.178, 399.879 565.178, 399.842 565.178, 399.805 565.178, 399.768 565.178, 399.732 565.178, 399.695 565.177, 399.658 565.177, 399.622 565.177, 399.585 565.177, 399.549 565.177, 399.513 565.177, 399.477 565.177, 399.441 565.177, 399.405 565.177, 399.369 565.177, 399.333 565.177, 399.297 565.176, 399.261 565.176, 399.225 565.176, 399.189 565.176, 399.154 565.176, 399.118 565.176, 399.082 565.176, 399.046 565.176, 399.010 565.176, 398.975 565.176, 398.939 565.175, 398.904 565.175, 398.868 565.175, 398.833 565.175, 398.797 565.175, 398.762 565.175, 398.727 565.175, 398.692 565.175, 398.657 565.175, 398.622 565.175, 398.587 565.174, 398.553 565.174, 398.519 565.174, 398.485 565.174, 398.451 565.174, 398.417 565.174, 398.383 565.174, 398.350 565.174, 398.316 565.174, 398.283 565.174, 398.250 565.174, 398.216 565.173, 398.183 565.173, 398.150 565.173, 398.117 565.173, 398.084 565.173, 398.051 565.173, 398.018 565.173, 397.986 565.173, 397.953 565.173, 397.920 565.173, 397.887 565.172, 397.854 565.172, 397.821 565.172, 397.789 565.172, 397.756 565.172, 397.724 565.172, 397.692 565.172, 397.660 565.172, 397.628 565.172, 397.596 565.172, 397.564 565.172, 397.533 565.171, 397.502 565.171, 397.471 565.171, 397.440 565.171, 397.410 565.171, 397.380 565.171, 397.349 565.171, 397.320 565.171, 397.290 565.171, 397.260 565.171, 397.231 565.171, 397.201 565.170, 397.172 565.170, 397.143 565.170, 397.114 565.170, 397.084 565.170, 397.055 565.170, 397.026 565.170, 396.995 565.170, 396.951 565.170, 396.881 565.169, 396.773 565.169, 396.613 565.168, 396.388 565.167, 396.087 565.166, 395.695 565.164, 395.201 565.163, 394.591 565.160, 393.852 565.158, 392.972 565.154, 391.938 565.151, 390.737 565.146, 389.356 565.141, 387.784 565.136, 386.010 565.130, 384.046 565.123, 381.902 565.116, 379.593 565.109, 377.132 565.100, 374.531 565.092, 371.804 565.083, 368.964 565.074, 366.023 565.065, 362.996 565.055, 359.894 565.045, 356.731 565.035, 353.519 565.025, 350.272 565.015, 347.001 565.005, 343.721 564.994, 340.444 564.977, 337.182 564.947, 333.948 564.900, 330.755 564.828, 327.615 564.726, 324.542 564.588, 321.548 564.408, 318.645 564.180, 315.846 563.897, 313.163 563.554, 310.609 563.145, 308.197 562.663, 305.938 562.104, 303.846 561.468, 301.916 560.790, 300.075 559.905, 298.670 558.978, 297.354 557.975, 296.199 556.894, 295.209 555.740, 294.371 554.520, 293.673 553.240, 293.101 551.906, 292.644 550.523, 292.287 549.099, 292.019 547.638, 291.827 546.146, 291.699 544.631, 291.621 543.097, 291.581 541.552, 291.566 540.000, 291.564 538.448, 291.566 536.903, 291.581 535.369, 291.621 533.854, 291.699 532.362, 291.827 530.901, 292.019 529.477, 292.287 528.094, 292.644 526.760, 293.101 525.480, 293.673 524.260, 294.371 523.106, 295.209 522.025, 296.199 521.022, 297.354 520.095, 298.670 519.210, 300.075 518.532, 301.916 517.896, 303.846 517.337, 305.938 516.855, 308.197 516.446, 310.609 516.103, 313.163 515.820, 315.846 515.592, 318.645 515.412, 321.548 515.274, 324.542 515.172, 327.615 515.100, 330.755 515.053, 333.948 515.023, 337.182 515.006, 340.444 514.995, 343.721 514.985, 347.001 514.975, 350.272 514.965, 353.519 514.955, 356.731 514.945, 359.894 514.935, 362.996 514.926, 366.023 514.917, 368.964 514.908, 371.804 514.900, 374.531 514.891, 377.132 514.884, 379.593 514.877, 381.902 514.870, 384.046 514.864, 386.010 514.859, 387.784 514.854, 389.356 514.849, 390.737 514.846, 391.938 514.842, 392.972 514.840, 393.852 514.837, 394.591 514.836, 395.201 514.834, 395.695 514.833, 396.087 514.832, 396.388 514.831, 396.613 514.831, 396.773 514.830, 396.881 514.830, 396.951 514.830, 396.995 514.830, 397.026 514.830, 397.055 514.830, 397.084 514.830, 397.114 514.830, 397.143 514.830, 397.172 514.829, 397.201 514.829, 397.231 514.829, 397.260 514.829, 397.290 514.829, 397.320 514.829, 397.349 514.829, 397.380 514.829, 397.410 514.829, 397.440 514.829, 397.471 514.829, 397.502 514.828, 397.533 514.828, 397.564 514.828, 397.596 514.828, 397.628 514.828, 397.660 514.828, 397.692 514.828, 397.724 514.828, 397.756 514.828, 397.789 514.828, 397.821 514.828, 397.854 514.827, 397.887 514.827, 397.920 514.827, 397.953 514.827, 397.986 514.827, 398.018 514.827, 398.051 514.827, 398.084 514.827, 398.117 514.827, 398.150 514.827, 398.183 514.826, 398.216 514.826, 398.250 514.826, 398.283 514.826, 398.316 514.826, 398.350 514.826, 398.383 514.826, 398.417 514.826, 398.451 514.826, 398.485 514.826, 398.519 514.826, 398.553 514.825, 398.587 514.825, 398.622 514.825, 398.657 514.825, 398.692 514.825, 398.727 514.825, 398.762 514.825, 398.797 514.825, 398.833 514.825, 398.868 514.825, 398.904 514.824, 398.939 514.824, 398.975 514.824, 399.010 514.824, 399.046 514.824, 399.082 514.824, 399.118 514.824, 399.154 514.824, 399.189 514.824, 399.225 514.824, 399.261 514.823, 399.297 514.823, 399.333 514.823, 399.369 514.823, 399.405 514.823, 399.441 514.823, 399.477 514.823, 399.513 514.823, 399.549 514.823, 399.585 514.823, 399.622 514.823, 399.658 514.822, 399.695 514.822, 399.732 514.822, 399.768 514.822, 399.805 514.822, 399.842 514.822, 399.879 514.822, 399.917 514.822, 399.954 514.822, 399.991 514.822, 400.028 514.821, 400.066 514.821, 400.103 514.821, 400.141 514.821, 400.178 514.821, 400.216 514.821, 400.253 514.821, 400.291 514.821, 400.328 514.821, 400.366 514.821, 400.403 514.820, 400.441 514.820, 400.479 514.820, 400.516 514.820, 400.554 514.820, 400.591 514.820, 400.629 514.820, 400.667 514.820, 400.704 514.820, 400.742 514.820, 400.780 514.820, 400.817 514.819, 400.855 514.819, 400.893 514.819, 400.931 514.819, 400.969 514.819, 401.007 514.819, 401.045 514.819, 401.083 514.819, 401.121 514.819, 401.159 514.819, 401.197 514.818, 401.235 514.818, 401.273 514.818, 401.311 514.818, 401.349 514.818, 401.387 514.818, 401.425 514.818, 401.464 514.818, 401.502 514.818, 401.540 514.818, 401.578 514.818, 401.616 514.817, 401.654 514.817, 401.693 514.817, 401.731 514.817, 401.769 514.817, 401.807 514.817, 401.845 514.817, 401.883 514.817, 401.921 514.817, 401.959 514.817, 401.997 514.816, 402.035 514.816, 402.073 514.816, 402.111 514.816, 402.149 514.816, 402.187 514.816, 402.224 514.816, 402.262 514.816, 402.300 514.816, 402.338 514.816, 402.375 514.815, 402.413 514.815, 402.451 514.815, 402.488 514.815, 402.526 514.815, 402.564 514.815, 402.601 514.815, 402.639 514.815, 402.676 514.815, 402.714 514.815, 402.752 514.815, 402.789 514.815, 402.827 514.814, 402.865 514.814, 402.902 514.814, 402.940 514.814, 402.977 514.814, 403.014 514.814, 403.052 514.814, 403.089 514.814, 403.126 514.814, 403.164 514.814, 403.201 514.814, 403.238 514.813, 403.275 514.813, 403.311 514.813, 403.348 514.813, 403.385 514.813, 403.421 514.813, 403.458 514.813, 403.494 514.813, 403.530 514.813, 403.567 514.813, 403.603 514.813, 403.639 514.812, 403.675 514.812, 403.711 514.812, 403.747 514.812, 403.783 514.812, 403.819 514.812, 403.855 514.812, 403.891 514.812, 403.927 514.812, 403.963 514.812, 403.998 514.812, 404.034 514.812, 404.070 514.812, 404.106 514.811, 404.142 514.811, 404.177 514.811, 404.213 514.811, 404.248 514.811, 404.284 514.811, 404.319 514.811, 404.354 514.811, 404.389 514.811, 404.424 514.811, 404.458 514.811, 404.493 514.811, 404.527 514.810, 404.561 514.810, 404.595 514.810, 404.629 514.810, 404.663 514.810, 404.696 514.810, 404.730 514.810, 404.763 514.810, 404.797 514.810, 404.830 514.810, 404.863 514.810, 404.896 514.810, 404.930 514.810, 404.963 514.810, 404.996 514.809, 405.029 514.809, 405.062 514.809, 405.095 514.809, 405.128 514.809, 405.161 514.809, 405.194 514.809, 405.227 514.809, 405.260 514.809, 405.293 514.809, 405.325 514.809, 405.357 514.809, 405.390 514.809, 405.422 514.809, 405.453 514.808, 405.485 514.808, 405.516 514.808, 405.547 514.808, 405.578 514.808, 405.609 514.808, 405.640 514.808, 405.670 514.808, 405.700 514.808, 405.730 514.808, 405.760 514.808, 405.790 514.808, 405.819 514.808, 405.849 514.808, 405.879 514.808, 405.908 514.808, 405.937 514.807, 405.967 514.807, 405.996 514.807, 406.028 514.806, 406.071 514.804, 406.140 514.800, 406.246 514.794, 406.401 514.784, 406.618 514.771, 406.909 514.753, 407.287 514.729, 407.763 514.700, 408.351 514.665, 409.063 514.623, 409.911 514.573, 410.908 514.515, 412.066 514.447, 413.397 514.371, 414.915 514.284, 416.627 514.187, 418.525 514.082, 420.597 513.968, 422.831 513.846, 425.215 513.718, 427.736 513.583, 430.382 513.442, 433.141 513.296, 436.001 513.145, 438.948 512.991, 441.972 512.833, 445.060 512.672, 448.198 512.510, 451.376 512.346, 454.580 512.181, 457.798 512.015, 461.017 511.836, 464.227 511.633, 467.414 511.394, 470.567 511.107, 473.673 510.759, 476.722 510.340, 479.700 509.836, 482.595 509.236, 485.396 508.528, 488.090 507.699, 490.666 506.738, 493.110 505.633, 495.411 504.372, 497.556 502.942, 499.534 501.332, 501.332 499.534, 502.942 497.556, 504.372 495.411, 505.633 493.110, 506.738 490.666, 507.699 488.090, 508.528 485.396, 509.236 482.595, 509.836 479.700, 510.340 476.722, 510.759 473.673, 511.107 470.567, 511.394 467.414, 511.633 464.227, 511.836 461.017, 512.015 457.798, 512.181 454.580, 512.346 451.376, 512.510 448.198, 512.672 445.060, 512.833 441.972, 512.991 438.948, 513.145 436.001, 513.296 433.141, 513.442 430.382, 513.583 427.736, 513.718 425.215, 513.846 422.831, 513.968 420.597, 514.082 418.525, 514.187 416.627, 514.284 414.915, 514.371 413.397, 514.447 412.066, 514.515 410.908, 514.573 409.912, 514.623 409.063, 514.665 408.351, 514.700 407.763, 514.729 407.287, 514.753 406.909, 514.771 406.618, 514.784 406.401, 514.794 406.246, 514.800 406.140, 514.804 406.071, 514.806 406.028, 514.807 405.996, 514.807 405.967, 514.807 405.937, 514.808 405.908, 514.808 405.879, 514.808 405.849, 514.808 405.819, 514.808 405.790, 514.808 405.760, 514.808 405.730, 514.808 405.700, 514.808 405.670, 514.808 405.640, 514.808 405.609, 514.808 405.578, 514.808 405.547, 514.808 405.516, 514.808 405.485, 514.808 405.453, 514.809 405.422, 514.809 405.390, 514.809 405.357, 514.809 405.325, 514.809 405.293, 514.809 405.260, 514.809 405.227, 514.809 405.194, 514.809 405.161, 514.809 405.128, 514.809 405.095, 514.809 405.062, 514.809 405.029, 514.809 404.996, 514.810 404.963, 514.810 404.930, 514.810 404.897, 514.810 404.863, 514.810 404.830, 514.810 404.797, 514.810 404.763, 514.810 404.730, 514.810 404.696, 514.810 404.663, 514.810 404.629, 514.810 404.595, 514.810 404.561, 514.810 404.527, 514.811 404.493, 514.811 404.458, 514.811 404.424, 514.811 404.389, 514.811 404.354, 514.811 404.319, 514.811 404.284, 514.811 404.248, 514.811 404.213, 514.811 404.177, 514.811 404.142, 514.811 404.106, 514.812 404.070, 514.812 404.034, 514.812 403.998, 514.812 403.963, 514.812 403.927, 514.812 403.891, 514.812 403.855, 514.812 403.819, 514.812 403.783, 514.812 403.747, 514.812 403.711, 514.812 403.675, 514.812 403.639, 514.813 403.603, 514.813 403.567, 514.813 403.530, 514.813 403.494, 514.813 403.458, 514.813 403.421, 514.813 403.385, 514.813 403.348, 514.813 403.311, 514.813 403.275, 514.813 403.238, 514.814 403.201, 514.814 403.164, 514.814 403.126, 514.814 403.089, 514.814 403.052, 514.814 403.014, 514.814 402.977, 514.814 402.940, 514.814 402.902, 514.814 402.864, 514.814 402.827, 514.815 402.789, 514.815 402.752, 514.815 402.714, 514.815 402.676, 514.815 402.639, 514.815 402.601, 514.815 402.564, 514.815 402.526, 514.815 402.488, 514.815 402.451, 514.815 402.413, 514.815 402.375, 514.816 402.338, 514.816 402.300, 514.816 402.262, 514.816 402.224, 514.816 402.187, 514.816 402.149, 514.816 402.111, 514.816 402.073, 514.816 402.035, 514.816 401.997, 514.817 401.959, 514.817 401.921, 514.817 401.883, 514.817 401.845, 514.817 401.807, 514.817 401.769, 514.817 401.731, 514.817 401.693, 514.817 401.654, 514.817 401.616, 514.818 401.578, 514.818 401.540, 514.818 401.502, 514.818 401.464, 514.818 401.426, 514.818 401.387, 514.818 401.349, 514.818 401.311, 514.818 401.273, 514.818 401.235, 514.818 401.197, 514.819 401.159, 514.819 401.121, 514.819 401.083, 514.819 401.045, 514.819 401.007, 514.819 400.969, 514.819 400.931, 514.819 400.893, 514.819 400.855, 514.819 400.817, 514.820 400.780, 514.820 400.742, 514.820 400.704, 514.820 400.667, 514.820 400.629, 514.820 400.591, 514.820 400.554, 514.820 400.516, 514.820 400.478, 514.820 400.441, 514.820 400.403, 514.821 400.366, 514.821 400.328, 514.821 400.291, 514.821 400.253, 514.821 400.216, 514.821 400.178, 514.821 400.141, 514.821 400.103, 514.821 400.066, 514.821 400.028, 514.822 399.991, 514.822 399.954, 514.822 399.917, 514.822 399.879, 514.822 399.842, 514.822 399.805, 514.822 399.768, 514.822 399.732, 514.822 399.695, 514.822 399.658, 514.823 399.622, 514.823 399.585, 514.823 399.549, 514.823 399.513, 514.823 399.477, 514.823 399.441, 514.823 399.405, 514.823 399.369, 514.823 399.333, 514.823 399.297, 514.823 399.261, 514.824 399.225, 514.824 399.189, 514.824 399.154, 514.824 399.118, 514.824 399.082, 514.824 399.046, 514.824 399.010, 514.824 398.975, 514.824 398.939, 514.824 398.904, 514.825 398.868, 514.825 398.833, 514.825 398.797, 514.825 398.762, 514.825 398.727, 514.825 398.692, 514.825 398.657, 514.825 398.622, 514.825 398.587, 514.825 398.553, 514.826 398.519, 514.826 398.485, 514.826 398.451, 514.826 398.417, 514.826 398.383, 514.826 398.350, 514.826 398.316, 514.826 398.283, 514.826 398.250, 514.826 398.216, 514.826 398.183, 514.827 398.150, 514.827 398.117, 514.827 398.084, 514.827 398.051, 514.827 398.018, 514.827 397.986, 514.827 397.953, 514.827 397.920, 514.827 397.887, 514.827 397.854, 514.828 397.821, 514.828 397.789, 514.828 397.756, 514.828 397.724, 514.828 397.692, 514.828 397.660, 514.828 397.628, 514.828 397.596, 514.828 397.564, 514.828 397.533, 514.828 397.502, 514.829 397.471, 514.829 397.440, 514.829 397.410, 514.829 397.380, 514.829 397.349, 514.829 397.320, 514.829 397.290, 514.829 397.260, 514.829 397.231, 514.829 397.201, 514.829 397.172, 514.830 397.143, 514.830 397.114, 514.830 397.084, 514.830 397.055, 514.830 397.026, 514.830 396.995, 514.830 396.951, 514.830 396.881, 514.830 396.773, 514.831 396.613, 514.831 396.388, 514.832 396.087, 514.833 395.695, 514.834 395.201, 514.836 394.591, 514.837 393.852, 514.840 392.972, 514.842 391.938, 514.846 390.737, 514.849 389.356, 514.854 387.784, 514.859 386.010, 514.864 384.046, 514.870 381.902, 514.877 379.593, 514.884 377.132, 514.891 374.531, 514.900 371.804, 514.908 368.964, 514.917 366.023, 514.926 362.996, 514.935 359.894, 514.945 356.731, 514.955 353.519, 514.965 350.272, 514.975 347.001, 514.985 343.721, 514.995 340.444, 515.006 337.182, 515.023 333.948, 515.053 330.755, 515.100 327.615, 515.172 324.542, 515.274 321.548, 515.412 318.645, 515.592 315.846, 515.820 313.163, 516.103 310.609, 516.446 308.197, 516.855 305.938, 517.337 303.846, 517.896 301.916, 518.532 300.075, 519.210 298.670, 520.095 297.354, 521.022 296.199, 522.025 295.209, 523.106 294.371, 524.260 293.673, 525.480 293.101, 526.760 292.644, 528.094 292.287, 529.477 292.019, 530.901 291.827, 532.362 291.699, 533.854 291.621, 535.369 291.581, 536.903 291.566, 538.448 291.564, 540.000 291.566, 541.552 291.581, 543.097 291.621, 544.631 291.699, 546.146 291.827, 547.638 292.019, 549.099 292.287, 550.523 292.644, 551.906 293.101, 553.240 293.673, 554.520 294.371, 555.740 295.209, 556.894 296.199, 557.975 297.354, 558.978 298.670, 559.905 300.075, 560.790 301.916, 561.468 303.846, 562.104 305.938, 562.663 308.197, 563.145 310.609, 563.554 313.163, 563.897 315.846, 564.180 318.645, 564.408 321.548, 564.588 324.542, 564.726 327.615, 564.828 330.755, 564.900 333.948, 564.947 337.182, 564.977 340.444, 564.994 343.721, 565.005 347.001, 565.015 350.272, 565.025 353.519, 565.035 356.731, 565.045 359.894, 565.055 362.996, 565.065 366.023, 565.074 368.964, 565.083 371.804, 565.092 374.531, 565.100 377.132, 565.109 379.593, 565.116 381.902, 565.123 384.046, 565.130 386.010, 565.136 387.784, 565.141 389.356, 565.146 390.737, 565.151 391.938, 565.154 392.972, 565.158 393.852, 565.160 394.591, 565.163 395.201, 565.164 395.695, 565.166 396.087, 565.167 396.388, 565.168 396.613, 565.169 396.773, 565.169 396.881, 565.170 396.951, 565.170 396.995, 565.170 397.026, 565.170 397.055, 565.170 397.084, 565.170 397.114, 565.170 397.143, 565.170 397.172, 565.170 397.201, 565.171 397.231, 565.171 397.260, 565.171 397.290, 565.171 397.320, 565.171 397.349, 565.171 397.380, 565.171 397.410, 565.171 397.440, 565.171 397.471, 565.171 397.502, 565.171 397.533, 565.172 397.564, 565.172 397.596, 565.172 397.628, 565.172 397.660, 565.172 397.692, 565.172 397.724, 565.172 397.756, 565.172 397.789, 565.172 397.821, 565.172 397.854, 565.172 397.887, 565.173 397.920, 565.173 397.953, 565.173 397.986, 565.173 398.018, 565.173 398.051, 565.173 398.084, 565.173 398.117, 565.173 398.150, 565.173 398.183, 565.173 398.216, 565.174 398.250, 565.174 398.283, 565.174 398.316, 565.174 398.350, 565.174 398.383, 565.174 398.417, 565.174 398.451, 565.174 398.485, 565.174 398.519, 565.174 398.553, 565.174 398.587, 565.175 398.622, 565.175 398.657, 565.175 398.692, 565.175 398.727, 565.175 398.762, 565.175 398.797, 565.175 398.833, 565.175 398.868, 565.175 398.904, 565.175 398.939, 565.176 398.975, 565.176 399.010, 565.176 399.046, 565.176 399.082, 565.176 399.118, 565.176 399.154, 565.176 399.189, 565.176 399.225, 565.176 399.261, 565.176 399.297, 565.177 399.333, 565.177 399.369, 565.177 399.405, 565.177 399.441, 565.177 399.477, 565.177 399.513, 565.177 399.549, 565.177 399.585, 565.177 399.622, 565.177 399.658, 565.177 399.695, 565.178 399.732, 565.178 399.768, 565.178 399.805, 565.178 399.842, 565.178 399.879, 565.178 399.917, 565.178 399.954, 565.178 399.991, 565.178 400.028, 565.178 400.066, 565.179 400.103, 565.179 400.141, 565.179 400.178, 565.179 400.216, 565.179 400.253, 565.179 400.291, 565.179 400.328, 565.179 400.366, 565.179 400.403, 565.179 400.441, 565.180 400.478, 565.180 400.516, 565.180 400.554, 565.180 400.591, 565.180 400.629, 565.180 400.667, 565.180 400.704, 565.180 400.742, 565.180 400.780, 565.180 400.817, 565.180 400.855, 565.181 400.893, 565.181 400.931, 565.181 400.969, 565.181 401.007, 565.181 401.045, 565.181 401.083, 565.181 401.121, 565.181 401.159, 565.181 401.197, 565.181 401.235, 565.182 401.273, 565.182 401.311, 565.182 401.349, 565.182 401.387, 565.182 401.426, 565.182 401.464, 565.182 401.502, 565.182 401.540, 565.182 401.578, 565.182 401.616, 565.182 401.654, 565.183 401.693, 565.183 401.731, 565.183 401.769, 565.183 401.807, 565.183 401.845, 565.183 401.883, 565.183 401.921, 565.183 401.959, 565.183 401.997, 565.183 402.035, 565.184 402.073, 565.184 402.111, 565.184 402.149, 565.184 402.187, 565.184 402.224, 565.184 402.262, 565.184 402.300, 565.184 402.338, 565.184 402.375, 565.184 402.413, 565.185 402.451, 565.185 402.488, 565.185 402.526, 565.185 402.564, 565.185 402.601, 565.185 402.639, 565.185 402.676, 565.185 402.714, 565.185 402.752, 565.185 402.789, 565.185 402.827, 565.185 402.864, 565.186 402.902, 565.186 402.940, 565.186 402.977, 565.186 403.014, 565.186 403.052, 565.186 403.089, 565.186 403.126, 565.186 403.164, 565.186 403.201, 565.186 403.238, 565.186 403.275, 565.187 403.311, 565.187 403.348, 565.187 403.385, 565.187 403.421, 565.187 403.458, 565.187 403.494, 565.187 403.530, 565.187 403.567, 565.187 403.603, 565.187 403.639, 565.187 403.675, 565.188 403.711, 565.188 403.747, 565.188 403.783, 565.188 403.819, 565.188 403.855, 565.188 403.891, 565.188 403.927, 565.188 403.963, 565.188 403.998, 565.188 404.034, 565.188 404.070, 565.188 404.106, 565.188 404.142, 565.189 404.177, 565.189 404.213, 565.189 404.248, 565.189 404.284, 565.189 404.319, 565.189 404.354, 565.189 404.389, 565.189 404.424, 565.189 404.458, 565.189 404.493, 565.189 404.527, 565.189 404.561, 565.190 404.595, 565.190 404.629, 565.190 404.663, 565.190 404.696, 565.190 404.730, 565.190 404.763, 565.190 404.797, 565.190 404.830, 565.190 404.863, 565.190 404.897, 565.190 404.930, 565.190 404.963, 565.190 404.996, 565.190 405.029, 565.191 405.062, 565.191 405.095, 565.191 405.128, 565.191 405.161, 565.191 405.194, 565.191 405.227, 565.191 405.260, 565.191 405.293, 565.191 405.325, 565.191 405.357, 565.191 405.390, 565.191 405.422, 565.191 405.453, 565.191 405.485, 565.192 405.516, 565.192 405.547, 565.192 405.578, 565.192 405.609, 565.192 405.640, 565.192 405.670, 565.192 405.700, 565.192 405.730, 565.192 405.760, 565.192 405.790, 565.192 405.819, 565.192 405.849, 565.192 405.879, 565.192 405.908, 565.192 405.937, 565.192 405.967, 565.193 405.996, 565.193 406.028, 565.193 406.071, 565.194 406.140, 565.196 406.246, 565.200 406.401, 565.206 406.618, 565.216 406.909, 565.229 407.287, 565.247 407.763, 565.271 408.351, 565.300 409.063, 565.335 409.912, 565.377 410.908, 565.427 412.066, 565.485 413.397, 565.553 414.915, 565.629 416.627, 565.716 418.525, 565.813 420.597, 565.918 422.831, 566.032 425.215, 566.154 427.736, 566.282 430.382, 566.417 433.141, 566.558 436.001, 566.704 438.948, 566.855 441.972, 567.009 445.060, 567.167 448.198, 567.328 451.376, 567.490 454.580, 567.654 457.798, 567.819 461.017, 567.985 464.227, 568.164 467.414, 568.367 470.567, 568.606 473.673, 568.893 476.722, 569.241 479.700, 569.660 482.595, 570.164 485.396, 570.764 488.090, 571.472 490.666, 572.301 493.110, 573.262 495.411, 574.367 497.556, 575.628 499.534, 577.058 501.332, 578.668 502.942, 580.466 504.372, 582.444 505.633, 584.589 506.738, 586.890 507.699, 589.334 508.528, 591.910 509.236, 594.604 509.836, 597.405 510.340, 600.300 510.759, 603.278 511.107, 606.327 511.394, 609.433 511.633, 612.586 511.836, 615.773 512.015, 618.983 512.181, 622.202 512.346, 625.420 512.510, 628.624 512.672, 631.802 512.833, 634.940 512.991, 638.028 513.145, 641.052 513.296, 643.999 513.442, 646.859 513.583, 649.618 513.718, 652.264 513.846, 654.785 513.968, 657.169 514.082, 659.403 514.187, 661.475 514.284, 663.373 514.371, 665.085 514.447, 666.603 514.515, 667.934 514.573, 669.092 514.623, 670.088 514.665, 670.937 514.700, 671.649 514.729, 672.237 514.753, 672.713 514.771, 673.091 514.784, 673.382 514.794, 673.599 514.800, 673.754 514.804, 673.860 514.806, 673.929 514.807, 673.972 514.807, 674.004 514.807, 674.033 514.808, 674.063 514.808, 674.092 514.808, 674.121 514.808, 674.151 514.808, 674.181 514.808, 674.210 514.808, 674.240 514.808, 674.270 514.808, 674.300 514.808, 674.330 514.808, 674.360 514.808, 674.391 514.808, 674.422 514.808, 674.453 514.808, 674.484 514.808, 674.515 514.809, 674.547 514.809, 674.578 514.809, 674.610 514.809, 674.643 514.809, 674.675 514.809, 674.707 514.809, 674.740 514.809, 674.773 514.809, 674.806 514.809, 674.839 514.809, 674.872 514.809, 674.905 514.809, 674.938 514.809, 674.971 514.810, 675.004 514.810, 675.037 514.810, 675.070 514.810, 675.103 514.810, 675.137 514.810, 675.170 514.810, 675.203 514.810, 675.237 514.810, 675.270 514.810, 675.304 514.810, 675.337 514.810, 675.371 514.810, 675.405 514.810, 675.439 514.811, 675.473 514.811, 675.507 514.811, 675.542 514.811, 675.576 514.811, 675.611 514.811, 675.646 514.811, 675.681 514.811, 675.716 514.811, 675.752 514.811, 675.787 514.811, 675.823 514.811, 675.858 514.812, 675.894 514.812, 675.930 514.812, 675.966 514.812, 676.001 514.812, 676.037 514.812, 676.073 514.812, 676.109 514.812, 676.145 514.812, 676.181 514.812, 676.217 514.812, 676.253 514.812, 676.289 514.812, 676.325 514.813, 676.361 514.813, 676.397 514.813, 676.433 514.813, 676.470 514.813, 676.506 514.813, 676.542 514.813, 676.579 514.813, 676.615 514.813, 676.652 514.813, 676.689 514.813, 676.725 514.814, 676.762 514.814, 676.799 514.814, 676.836 514.814, 676.874 514.814, 676.911 514.814, 676.948 514.814, 676.986 514.814, 677.023 514.814, 677.060 514.814, 677.098 514.814, 677.136 514.815, 677.173 514.815, 677.211 514.815, 677.248 514.815, 677.286 514.815, 677.324 514.815, 677.361 514.815, 677.399 514.815, 677.436 514.815, 677.474 514.815, 677.512 514.815, 677.549 514.815, 677.587 514.816, 677.625 514.816, 677.662 514.816, 677.700 514.816, 677.738 514.816, 677.776 514.816, 677.813 514.816, 677.851 514.816, 677.889 514.816, 677.927 514.816, 677.965 514.817, 678.003 514.817, 678.041 514.817, 678.079 514.817, 678.117 514.817, 678.155 514.817, 678.193 514.817, 678.231 514.817, 678.269 514.817, 678.307 514.817, 678.346 514.818, 678.384 514.818, 678.422 514.818, 678.460 514.818, 678.498 514.818, 678.536 514.818, 678.574 514.818, 678.613 514.818, 678.651 514.818, 678.689 514.818, 678.727 514.818, 678.765 514.819, 678.803 514.819, 678.841 514.819, 678.879 514.819, 678.917 514.819, 678.955 514.819, 678.993 514.819, 679.031 514.819, 679.069 514.819, 679.107 514.819, 679.145 514.820, 679.183 514.820, 679.220 514.820, 679.258 514.820, 679.296 514.820, 679.333 514.820, 679.371 514.820, 679.409 514.820, 679.446 514.820, 679.484 514.820, 679.521 514.820, 679.559 514.821, 679.597 514.821, 679.634 514.821, 679.672 514.821, 679.709 514.821, 679.747 514.821, 679.784 514.821, 679.822 514.821, 679.859 514.821, 679.897 514.821, 679.934 514.822, 679.972 514.822, 680.009 514.822, 680.046 514.822, 680.083 514.822, 680.121 514.822, 680.158 514.822, 680.195 514.822, 680.232 514.822, 680.268 514.822, 680.305 514.823, 680.342 514.823, 680.378 514.823, 680.415 514.823, 680.451 514.823, 680.487 514.823, 680.523 514.823, 680.559 514.823, 680.595 514.823, 680.631 514.823, 680.667 514.823, 680.703 514.824, 680.739 514.824, 680.775 514.824, 680.811 514.824, 680.846 514.824, 680.882 514.824, 680.918 514.824, 680.954 514.824, 680.989 514.824, 681.025 514.824, 681.061 514.825, 681.096 514.825, 681.132 514.825, 681.167 514.825, 681.203 514.825, 681.238 514.825, 681.273 514.825, 681.308 514.825, 681.343 514.825, 681.378 514.825, 681.413 514.826, 681.447 514.826, 681.481 514.826, 681.515 514.826, 681.549 514.826, 681.583 514.826, 681.617 514.826, 681.650 514.826, 681.684 514.826, 681.717 514.826, 681.750 514.826, 681.784 514.827, 681.817 514.827, 681.850 514.827, 681.883 514.827, 681.916 514.827, 681.949 514.827, 681.982 514.827, 682.014 514.827, 682.047 514.827, 682.080 514.827, 682.113 514.828, 682.146 514.828, 682.179 514.828, 682.211 514.828, 682.244 514.828, 682.276 514.828, 682.308 514.828, 682.340 514.828, 682.372 514.828, 682.404 514.828, 682.436 514.828, 682.467 514.829, 682.498 514.829, 682.529 514.829, 682.560 514.829, 682.590 514.829, 682.620 514.829, 682.651 514.829, 682.680 514.829, 682.710 514.829, 682.740 514.829, 682.769 514.829, 682.799 514.830, 682.828 514.830, 682.857 514.830, 682.886 514.830, 682.916 514.830, 682.945 514.830, 682.974 514.830, 683.005 514.830, 683.049 514.830, 683.119 514.831, 683.227 514.831, 683.387 514.832, 683.612 514.833, 683.913 514.834, 684.305 514.836, 684.799 514.837, 685.409 514.840, 686.148 514.842, 687.028 514.846, 688.062 514.849, 689.263 514.854, 690.644 514.859, 692.216 514.864, 693.990 514.870, 695.954 514.877, 698.098 514.884, 700.407 514.891, 702.868 514.900, 705.469 514.908, 708.196 514.917, 711.036 514.926, 713.977 514.935, 717.004 514.945, 720.106 514.955, 723.269 514.965, 726.481 514.975, 729.728 514.985, 732.999 514.995, 736.279 515.006, 739.556 515.023, 742.819 515.053, 746.052 515.100, 749.245 515.172, 752.385 515.274, 755.458 515.412, 758.452 515.592, 761.355 515.820, 764.154 516.103, 766.837 516.446, 769.391 516.855, 771.803 517.337, 774.062 517.896, 776.154 518.532, 778.084 519.210, 779.925 520.095, 781.330 521.022, 782.646 522.025, 783.801 523.106, 784.791 524.260, 785.629 525.480, 786.327 526.760, 786.899 528.094, 787.356 529.477, 787.713 530.901, 787.981 532.362, 788.173 533.854, 788.301 535.369, 788.379 536.903, 788.419 538.448, 788.434 540.000, 788.436 541.552, 788.434 543.097, 788.419 544.631, 788.379 546.146, 788.301 547.638, 788.173 549.099, 787.981 550.523, 787.713 551.906, 787.356 553.240, 786.899 554.520, 786.327 555.740, 785.629 556.894, 784.791 557.975, 783.801 558.978, 782.646 559.905, 781.330 560.790, 779.925 561.468, 778.084 562.104, 776.154 562.663, 774.062 563.145, 771.803 563.554, 769.391 563.897, 766.837 564.180, 764.154 564.408, 761.355 564.588, 758.452 564.726, 755.458 564.828, 752.385 564.900, 749.245 564.947, 746.052 564.977, 742.819 564.994, 739.556 565.005, 736.279 565.015, 732.999 565.025, 729.728 565.035, 726.481 565.045, 723.269 565.055, 720.106 565.065, 717.004 565.074, 713.977 565.083, 711.036 565.092, 708.196 565.100, 705.469 565.109, 702.868 565.116, 700.407 565.123, 698.098 565.130, 695.954 565.136, 693.990 565.141, 692.216 565.146, 690.644 565.151, 689.263 565.154, 688.062 565.158, 687.028 565.160, 686.148 565.163, 685.409 565.164, 684.799 565.166, 684.305 565.167, 683.913 565.168, 683.612 565.169, 683.387 565.169, 683.227 565.170, 683.119 565.170, 683.049 565.170, 683.005 565.170, 682.974 565.170, 682.945 565.170, 682.916 565.170, 682.886 565.170, 682.857 565.170, 682.828 565.171, 682.799 565.171, 682.769 565.171, 682.740 565.171, 682.710 565.171, 682.680 565.171, 682.651 565.171, 682.620 565.171, 682.590 565.171, 682.560 565.171, 682.529 565.171, 682.498 565.172, 682.467 565.172, 682.436 565.172, 682.404 565.172, 682.372 565.172, 682.340 565.172, 682.308 565.172, 682.276 565.172, 682.244 565.172, 682.211 565.172, 682.179 565.172, 682.146 565.173, 682.113 565.173, 682.080 565.173, 682.047 565.173, 682.014 565.173, 681.982 565.173, 681.949 565.173, 681.916 565.173, 681.883 565.173, 681.850 565.173, 681.817 565.174, 681.784 565.174, 681.750 565.174, 681.717 565.174, 681.684 565.174, 681.650 565.174, 681.617 565.174, 681.583 565.174, 681.549 565.174, 681.515 565.174, 681.481 565.174, 681.447 565.175, 681.413 565.175, 681.378 565.175, 681.343 565.175, 681.308 565.175, 681.273 565.175, 681.238 565.175, 681.203 565.175, 681.167 565.175, 681.132 565.175, 681.096 565.176, 681.061 565.176, 681.025 565.176, 680.989 565.176, 680.954 565.176, 680.918 565.176, 680.882 565.176, 680.846 565.176, 680.811 565.176, 680.775 565.176, 680.739 565.177, 680.703 565.177, 680.667 565.177, 680.631 565.177, 680.595 565.177, 680.559 565.177, 680.523 565.177, 680.487 565.177, 680.451 565.177, 680.415 565.177, 680.378 565.177, 680.342 565.178, 680.305 565.178, 680.268 565.178, 680.232 565.178, 680.195 565.178, 680.158 565.178, 680.121 565.178, 680.083 565.178, 680.046 565.178, 680.009 565.178, 679.972 565.179, 679.934 565.179, 679.897 565.179, 679.859 565.179, 679.822 565.179, 679.784 565.179, 679.747 565.179, 679.709 565.179, 679.672 565.179, 679.634 565.179, 679.597 565.180, 679.559 565.180, 679.521 565.180, 679.484 565.180, 679.446 565.180, 679.409 565.180, 679.371 565.180, 679.333 565.180, 679.296 565.180, 679.258 565.180, 679.220 565.180, 679.183 565.181, 679.145 565.181, 679.107 565.181, 679.069 565.181, 679.031 565.181, 678.993 565.181, 678.955 565.181, 678.917 565.181, 678.879 565.181, 678.841 565.181, 678.803 565.182, 678.765 565.182, 678.727 565.182, 678.689 565.182, 678.651 565.182, 678.613 565.182, 678.574 565.182, 678.536 565.182, 678.498 565.182, 678.460 565.182, 678.422 565.182, 678.384 565.183, 678.346 565.183, 678.307 565.183, 678.269 565.183, 678.231 565.183, 678.193 565.183, 678.155 565.183, 678.117 565.183, 678.079 565.183, 678.041 565.183, 678.003 565.184, 677.965 565.184, 677.927 565.184, 677.889 565.184, 677.851 565.184, 677.813 565.184, 677.776 565.184, 677.738 565.184, 677.700 565.184, 677.662 565.184, 677.625 565.185, 677.587 565.185, 677.549 565.185, 677.512 565.185, 677.474 565.185, 677.436 565.185, 677.399 565.185, 677.361 565.185, 677.324 565.185, 677.286 565.185, 677.248 565.185, 677.211 565.185, 677.173 565.186, 677.136 565.186, 677.098 565.186, 677.060 565.186, 677.023 565.186, 676.986 565.186, 676.948 565.186, 676.911 565.186, 676.874 565.186, 676.836 565.186, 676.799 565.186, 676.762 565.187, 676.725 565.187, 676.689 565.187, 676.652 565.187, 676.615 565.187, 676.579 565.187, 676.542 565.187, 676.506 565.187, 676.470 565.187, 676.433 565.187, 676.397 565.187, 676.361 565.188, 676.325 565.188, 676.289 565.188, 676.253 565.188, 676.217 565.188, 676.181 565.188, 676.145 565.188, 676.109 565.188, 676.073 565.188, 676.037 565.188, 676.001 565.188, 675.966 565.188, 675.930 565.188, 675.894 565.189, 675.858 565.189, 675.823 565.189, 675.787 565.189, 675.752 565.189, 675.716 565.189, 675.681 565.189, 675.646 565.189, 675.611 565.189, 675.576 565.189, 675.542 565.189, 675.507 565.189, 675.473 565.190, 675.439 565.190, 675.405 565.190, 675.371 565.190, 675.337 565.190, 675.304 565.190, 675.270 565.190, 675.237 565.190, 675.203 565.190, 675.170 565.190, 675.137 565.190, 675.103 565.190, 675.070 565.190, 675.037 565.190, 675.004 565.191, 674.971 565.191, 674.938 565.191, 674.905 565.191, 674.872 565.191, 674.839 565.191, 674.806 565.191, 674.773 565.191, 674.740 565.191, 674.707 565.191, 674.675 565.191, 674.643 565.191, 674.610 565.191, 674.578 565.191, 674.547 565.192, 674.515 565.192, 674.484 565.192, 674.453 565.192, 674.422 565.192, 674.391 565.192, 674.360 565.192, 674.330 565.192, 674.300 565.192, 674.270 565.192, 674.240 565.192, 674.210 565.192, 674.181 565.192, 674.151 565.192, 674.121 565.192, 674.092 565.192, 674.063 565.193, 674.033 565.193, 674.004 565.193, 673.972 565.194, 673.929 565.196, 673.860 565.200, 673.754 565.206, 673.599 565.216, 673.382 565.229, 673.091 565.247, 672.713 565.271, 672.237 565.300, 671.649 565.335, 670.937 565.377, 670.088 565.427, 669.092 565.485, 667.934 565.553, 666.603 565.629, 665.085 565.716, 663.373 565.813, 661.475 565.918, 659.403 566.032, 657.169 566.154, 654.785 566.282, 652.264 566.417, 649.618 566.558, 646.859 566.704, 643.999 566.855, 641.052 567.009, 638.028 567.167, 634.940 567.328, 631.802 567.490, 628.624 567.654, 625.420 567.819, 622.202 567.985, 618.983 568.164, 615.773 568.367, 612.586 568.606, 609.433 568.893, 606.327 569.241, 603.278 569.660, 600.300 570.164, 597.405 570.764, 594.604 571.472, 591.910 572.301, 589.334 573.262, 586.890 574.367, 584.589 575.628, 582.444 577.058, 580.466 578.668, 578.668 580.466, 577.058 582.444, 575.628 584.589, 574.367 586.890, 573.262 589.334, 572.301 591.910, 571.472 594.604, 570.764 597.405, 570.164 600.300, 569.660 603.278, 569.241 606.327, 568.893 609.433, 568.606 612.586, 568.367 615.773, 568.164 618.983, 567.985 622.202, 567.819 625.420, 567.654 628.624, 567.490 631.802, 567.328 634.940, 567.167 638.028, 567.009 641.052, 566.855 643.999, 566.704 646.859, 566.558 649.618, 566.417 652.264, 566.282 654.785, 566.154 657.169, 566.032 659.403, 565.918 661.475, 565.813 663.373, 565.716 665.085, 565.629 666.603, 565.553 667.934, 565.485 669.092, 565.427 670.089, 565.377 670.937, 565.335 671.649, 565.300 672.237, 565.271 672.713, 565.247 673.091, 565.229 673.382, 565.216 673.599, 565.206 673.754, 565.200 673.860, 565.196 673.929, 565.194 673.972, 565.193 674.004, 565.193 674.033, 565.193 674.063, 565.192 674.092, 565.192 674.121, 565.192 674.151, 565.192 674.180, 565.192 674.210, 565.192 674.240, 565.192 674.270, 565.192 674.300, 565.192 674.330, 565.192 674.360, 565.192 674.391, 565.192 674.422, 565.192 674.453, 565.192 674.484, 565.192 674.515, 565.192 674.547, 565.191 674.578, 565.191 674.610, 565.191 674.643, 565.191 674.675, 565.191 674.707, 565.191 674.740, 565.191 674.773, 565.191 674.806, 565.191 674.839, 565.191 674.872, 565.191 674.905, 565.191 674.938, 565.191 674.971, 565.191 675.004, 565.190 675.037, 565.190 675.070, 565.190 675.104, 565.190 675.137, 565.190 675.170, 565.190 675.203, 565.190 675.237, 565.190 675.270, 565.190 675.304, 565.190 675.337, 565.190 675.371, 565.190 675.405, 565.190 675.439, 565.190 675.473, 565.189 675.507, 565.189 675.542, 565.189 675.576, 565.189 675.611, 565.189 675.646, 565.189 675.681, 565.189 675.716, 565.189 675.752, 565.189 675.787, 565.189 675.823, 565.189 675.858, 565.189 675.894, 565.188 675.930, 565.188 675.966, 565.188 676.002, 565.188 676.037, 565.188 676.073, 565.188 676.109, 565.188 676.145, 565.188 676.181, 565.188 676.217, 565.188 676.253, 565.188 676.289, 565.188 676.325, 565.188 676.361, 565.187 676.397, 565.187 676.433, 565.187 676.470, 565.187 676.506, 565.187 676.542, 565.187 676.579, 565.187 676.615, 565.187 676.652, 565.187 676.689, 565.187 676.725, 565.187 676.762, 565.186 676.799, 565.186 676.836, 565.186 676.874, 565.186 676.911, 565.186 676.948, 565.186 676.986, 565.186 677.023, 565.186 677.060, 565.186 677.098, 565.186 677.135, 565.186 677.173, 565.185 677.211, 565.185 677.248, 565.185 677.286, 565.185 677.324, 565.185 677.361, 565.185 677.399, 565.185 677.436, 565.185 677.474, 565.185 677.512, 565.185 677.549, 565.185 677.587, 565.185 677.625, 565.184 677.662, 565.184 677.700, 565.184 677.738, 565.184 677.776, 565.184 677.813, 565.184 677.851, 565.184 677.889, 565.184 677.927, 565.184 677.965, 565.184 678.003, 565.183 678.041, 565.183 678.079, 565.183 678.117, 565.183 678.155, 565.183 678.193, 565.183 678.231, 565.183 678.269, 565.183 678.307, 565.183 678.346, 565.183 678.384, 565.182 678.422, 565.182 678.460, 565.182 678.498, 565.182 678.536, 565.182 678.575, 565.182 678.613, 565.182 678.651, 565.182 678.689, 565.182 678.727, 565.182 678.765, 565.182 678.803, 565.181 678.841, 565.181 678.879, 565.181 678.917, 565.181 678.955, 565.181 678.993, 565.181 679.031, 565.181 679.069, 565.181 679.107, 565.181 679.145, 565.181 679.183, 565.180 679.220, 565.180 679.258, 565.180 679.296, 565.180 679.333, 565.180 679.371, 565.180 679.409, 565.180 679.446, 565.180 679.484, 565.180 679.521, 565.180 679.559, 565.180 679.597, 565.179 679.634, 565.179 679.672, 565.179 679.709, 565.179 679.747, 565.179 679.784, 565.179 679.822, 565.179 679.859, 565.179 679.897, 565.179 679.934, 565.179 679.972, 565.178 680.009, 565.178 680.046, 565.178 680.083, 565.178 680.121, 565.178 680.158, 565.178 680.195, 565.178 680.232, 565.178 680.268, 565.178 680.305, 565.178 680.342, 565.177 680.378, 565.177 680.415, 565.177 680.451, 565.177 680.487, 565.177 680.523, 565.177 680.559, 565.177 680.595, 565.177 680.631, 565.177 680.667, 565.177 680.703, 565.177 680.739, 565.176 680.775, 565.176 680.811, 565.176 680.846, 565.176 680.882, 565.176 680.918, 565.176 680.954, 565.176 680.990, 565.176 681.025, 565.176 681.061, 565.176 681.096, 565.175 681.132, 565.175 681.167, 565.175 681.203, 565.175 681.238, 565.175 681.273, 565.175 681.308, 565.175 681.343, 565.175 681.378, 565.175 681.413, 565.175 681.447, 565.174 681.481, 565.174 681.515, 565.174 681.549, 565.174 681.583, 565.174 681.617, 565.174 681.650, 565.174 681.684, 565.174 681.717, 565.174 681.750, 565.174 681.784, 565.174 681.817, 565.173 681.850, 565.173 681.883, 565.173 681.916, 565.173 681.949, 565.173 681.982, 565.173 682.014, 565.173 682.047, 565.173 682.080, 565.173 682.113, 565.173 682.146, 565.172 682.179, 565.172 682.211, 565.172 682.244, 565.172 682.276, 565.172 682.308, 565.172 682.340, 565.172 682.372, 565.172 682.404, 565.172 682.436, 565.172 682.467, 565.172 682.498, 565.171 682.529, 565.171 682.560, 565.171 682.590, 565.171 682.620, 565.171 682.651, 565.171 682.680, 565.171 682.710, 565.171 682.740, 565.171 682.769, 565.171 682.799, 565.171 682.828, 565.170 682.857, 565.170 682.886, 565.170 682.916, 565.170 682.945, 565.170 682.974, 565.170 683.005, 565.170 683.049, 565.170 683.119, 565.170 683.227, 565.169 683.387, 565.169 683.612, 565.168 683.913, 565.167 684.305, 565.166 684.799, 565.164 685.409, 565.163 686.148, 565.160 687.028, 565.158 688.062, 565.154 689.263, 565.151 690.644, 565.146 692.216, 565.141 " fill="none" stroke="rgb(0, 0, 0)" stroke-linecap="butt" stroke-linejoin="round" stroke-opacity="1.0" stroke-width="3.0" />
        </g>
    </g>
</svg>
